<?xml version="1.0" standalone="no"?>
<!DOCTYPE svg PUBLIC "-//W3C//DTD SVG 1.1//EN" "http://www.w3.org/Graphics/SVG/1.1/DTD/svg11.dtd" >
<svg xmlns="http://www.w3.org/2000/svg">
<metadata></metadata>
<defs>
<font id="NothingYouCouldSayRegular" horiz-adv-x="1254" >
<font-face units-per-em="2048" ascent="1638" descent="-410" />
<missing-glyph horiz-adv-x="1000" />
<glyph horiz-adv-x="0" />
<glyph horiz-adv-x="2048" />
<glyph unicode="&#xd;" horiz-adv-x="1000" />
<glyph unicode=" "  horiz-adv-x="1000" />
<glyph unicode="&#x09;" horiz-adv-x="1000" />
<glyph unicode="&#xa0;" horiz-adv-x="1000" />
<glyph unicode="!" horiz-adv-x="498" d="M152 99q8 39 41 74t77 56t80 3t53 -47t13 -58t-25 -54t-53 -39q-79 -34 -152 6q-42 20 -34 59zM190 1760q0 38 24 60t54 26t54 -7t24 -39l2 -1256q0 -30 -24 -38t-54 1t-54 30t-24 47z" />
<glyph unicode="&#x22;" horiz-adv-x="628" d="M142 1224v362q18 38 44 51t48 8t38 -24t16 -45l-20 -396q-24 -12 -60 0q-66 22 -66 44zM356 1232v362q18 38 44 51t48 8t38 -24t16 -45l-20 -396q-24 -12 -60 0q-66 22 -66 44z" />
<glyph unicode="#" horiz-adv-x="2352" d="M40 980q69 113 389 163q83 13 152 23q159 23 165 50l78 392q14 14 42 -1q37 -20 56 -39v-314q62 -12 254 25q46 9 80 15q26 29 38 142.5t19 183.5t19 125t31 84q29 44 74 -5q15 -16 15 -20v-432q45 -6 224.5 32t290.5 59t197 27t131 -10t19 -68q-18 -26 -38 -40 q-86 -14 -188 -22t-204 -21t-195 -38t-160 -72q-147 -103 -117 -317l59 -2l59 2l56 8q42 6 99 14t120 17t120 17t99 14l56 8q30 4 60 -13t46 -43t12 -54t-40 -46q-76 -38 -171 -46t-194 -10t-198 -11t-183 -51q-10 -4 -24 -20t-14 -20v-626l-40 -40l-40 40l-78 626 q0 4 -43 4q-77 0 -113 -4q-122 -18 -168 -59t-52 -103t9 -140t15 -168q0 -24 -22 -34t-47 -8t-47 14t-22 28v392h-530v78q0 5 70 20l88 20q18 2 62 9t94 13t95 11l63 7q34 6 51 46t17 88t-17 89t-53 50t-94 1t-124 -24t-134 -33t-125 -24q-129 -16 -149 41zM860 902 q0 -62 4 -78q243 -26 362 77q50 43 59 93t-21 85t-101 45t-151 -16t-114 -53q-38 -30 -38 -153z" />
<glyph unicode="$" horiz-adv-x="1098" d="M49 656q-11 22 5 70q30 18 75 -6t94 -61t100 -76t93 -53t71 9t34 84t7 120t2 115q0 130 -6 142q-152 88 -213 164t-64 141t29 117t81 96q53 47 207 148q4 16 10 55t13 83q17 107 17 138q113 36 142 -111q14 -72 14 -129v-74q133 -57 191.5 -105.5t82.5 -98.5t0 -110 q-18 -14 -46 7t-63 49t-77 51t-88 11q-10 -2 -25 -17t-15 -23l-10 -368q185 -69 273 -190q81 -110 57 -227t-121 -201t-267 -118l-30 -346l-58 -40l-98 78v354q-32 20 -139 100t-160 119t-80 60t-38 43zM373 1344q2 -118 113 -148q4 -4 19 -4t19 4l14 260q-65 33 -119 -14 q-47 -41 -46 -98zM692 488q-2 -26 27 -23t67 24t75 58t50 73t11 66t-24 58q-46 59 -178 100z" />
<glyph unicode="%" horiz-adv-x="1024" d="M61 1684q1 46 28 79t68 45t75 -8q30 -6 39 -53t-6 -95t-54 -74t-105 10q-46 50 -45 96zM131 83q-7 45 7 83q63 232 280 711q62 137 125 274q172 374 216.5 477.5t72.5 138.5t49 39t36 -16t21 -54l-696 -1644q-20 -76 -44 -88t-42 11t-25 68zM749 209q9 35 31 59t52 37 t58 11q65 -5 72 -64q14 -66 -11 -109t-65 -60t-80 -6t-53 54t-4 78z" />
<glyph unicode="&#x26;" horiz-adv-x="1328" d="M70 474q14 144 95 298t213 296q-152 489 -21 664q73 97 200 114q59 8 113 8q231 -4 270 -155q35 -135 -74 -334q-105 -192 -280 -329l308 -502q24 -16 47 13t46 92t30 104t14 78t17 65t33 39q47 22 159 -57l-150 -468q-32 -106 91 -218q77 -70 98 -112t13 -80 q-12 -6 -51.5 -6t-71 22t-59.5 50t-59 58q-76 74 -127 96q-4 2 -19 0t-65 -30t-115 -79t-124 -85t-124 -43t-157 21q-146 86 -205 211t-45 269zM228 487q-16 -111 10 -200q42 -145 169 -164q153 -23 369 227q-14 61 -87 193q-171 306 -215 391q-112 -100 -171 -218t-75 -229 zM459 1306q19 -60 45 -108q72 38 137 106t102 136t50 107t7 69q-11 57 -102 96q-158 15 -224 -75q-84 -114 -15 -331z" />
<glyph unicode="'" horiz-adv-x="498" d="M94 1004q18 36 41 77t44 89q49 112 63 228q110 -4 93 -159q-15 -139 -95 -257q-34 -50 -68 -68t-54 22z" />
<glyph unicode="(" horiz-adv-x="790" d="M50 824q-19 272 103 626q53 154 124 284t144 204t141 77t116 -93q-498 -474 -490 -1002q8 -538 528 -998q24 -72 4 -93t-58 -14t-80 29t-62 38q-318 273 -419 669q-33 129 -51 273z" />
<glyph unicode=")" horiz-adv-x="626" d="M-6 -124q414 464 455 949q44 522 -351 979v78q72 43 162 -32q36 -30 65 -67t47 -57q199 -305 212 -712q11 -343 -103 -681q-102 -303 -242 -467q-63 -74 -121 -96t-94 43q-14 27 -21 43t-9 20z" />
<glyph unicode="*" horiz-adv-x="1236" d="M100 1010q28 38 74 60t93 40t88 39t59 57l-196 236v116q64 24 145 -28q31 -20 57 -37t47 -10q44 15 65 193q4 4 19 4t20 -4t21 -23t36 -40q52 -55 60 -55q12 0 45 26q65 51 74 54.5t38 3.5t39 -4q14 -48 -2 -89t-38 -78t-38 -73t0 -74q55 -8 140.5 15t128.5 30t88 -8 t51 -40t-14 -53t-59 -58t-77 -55t-68 -43t-34 -24q24 -30 63 -52t74 -46t55 -56t5 -79t-44 -51t-65 14t-79 50t-86 59q-105 66 -157 43q-2 -18 5 -66t15 -106t14 -119t2 -107q-9 -107 -76 -72q-8 4 -23 19t-17 24t-12 59t-25 112q-39 161 -79 218q-4 -4 -26 -38t-52 -79 t-65 -92t-68 -77q-77 -70 -103 10q-16 53 27 196q9 30 11 40q-90 30 -156 118z" />
<glyph unicode="+" horiz-adv-x="1058" d="M56 1116l40 58h332v444q61 24 100 -44q24 -42 32 -85t15 -82t13 -83t11 -83t7 -53h352q22 0 66 -57q22 -28 2 -81q-14 -38 -28 -38h-354q-59 0 -40 -158q8 -68 21 -149t21 -153q19 -167 -40 -188q-17 6 -47.5 39t-32.5 38t-8 25t-12 46q-14 62 -18 84t-10 73t-12 110 t-11 111t-7 70q-17 60 -105 67q-39 3 -83 1t-85 3q-96 12 -119 85z" />
<glyph unicode="," horiz-adv-x="550" d="M94 -120q139 117 126 253q-4 43 -16 91q4 24 27 34t51 6q67 -10 85.5 -55t15.5 -98t-21 -106q-41 -122 -104 -169q-34 -25 -71 -16q-66 18 -93 60z" />
<glyph unicode="-" horiz-adv-x="1180" d="M113 853q-3 33 17 61t50 49t67 26t143 14t223 18t223 17t164 14q20 -10 43 -36t36 -57q32 -77 -41 -103l-874 -62q-48 26 -51 59z" />
<glyph unicode="." horiz-adv-x="500" d="M166 80q-18 56 11 101t75 66t91 11t59 -66t-14 -102t-72 -66t-88 -10t-62 66z" />
<glyph unicode="/" horiz-adv-x="726" d="M40 40q-14 28 98 407q209 709 424 1405q71 11 112 -23q37 -31 16 -81l-512 -1736q-13 -39 -36.5 -49.5t-47.5 3.5t-54 74z" />
<glyph unicode="0" d="M59 1106q35 292 117 449t189 217t228 36t232 -112t201 -228t136 -310t35 -359t-93 -362t-170 -262t-181 -119t-185 -8t-175 87t-153 167t-116 231q-100 281 -65 573zM209 942q5 -150 34 -285t81 -244t123 -173q156 -141 347 -10q158 164 225 337t66 334t-57 302t-141 242 t-188 153t-198 36t-170 -111t-101 -263t-21 -318z" />
<glyph unicode="1" horiz-adv-x="314" d="M53 652q10 280 25.5 498t23.5 334q18 266 12 316q110 50 142 -9q8 -15 14 -31q-32 -121 -86 -1542q-4 -106 -6 -157t-2 -21q-31 -24 -56 -17q-88 26 -67 629z" />
<glyph unicode="2" horiz-adv-x="1162" d="M64 1590q-26 126 174 199q163 60 452 69q247 -129 39 -605q-99 -227 -217 -444t-154 -300t-48 -147t-8 -117q9 -119 84 -119l736 52q10 -120 -45 -144q-23 -10 -48 -8t-43 -2q-72 3 -202 -15.5t-204 -27.5t-143 -7q-154 4 -239 68q-169 228 66 698q64 128 131 246 t125 222t88 199t30 158t-27 89t-73 23t-101 -20t-114 -41t-111 -40t-92 -16t-56 30z" />
<glyph unicode="3" horiz-adv-x="1098" d="M90 1599q14 45 65 92t127 87t155 55t149 -4t109 -88q88 -155 -37 -533q452 -202 402 -630q-22 -182 -109 -307t-213 -182t-275 -43t-293 108q-16 10 -35 41t-27 68q-19 90 46 119q6 -28 66 -68t146 -66t184 -25t182 56t138 177t52 336q-111 188 -262 209q-64 9 -123 -9 t-108 -37t-85 -27t-56 18q-2 6 0 28t6 30q24 32 74 93t99 137q123 191 113 324q-7 172 -276 64q-87 -35 -184 -94q-44 26 -30 71z" />
<glyph unicode="4" horiz-adv-x="1134" d="M30 1048l118 628q4 24 28 36t51 12t50 -12t27 -37t-8 -82t-30 -127t-36 -144t-22 -134t10 -97t49 -34t77 9t92 13t101 15t94 15t72 12t38 6t29 7t39 12q45 14 45 20l78 626q7 52 56 42q48 -10 62 -42q-35 -345 -10 -888q10 -214 19 -427t1 -437q-4 -34 -32 -44t-60 -2 t-58 30t-26 54l-10 892q-32 4 -110 -6t-176 -20t-201 -17t-186 1t-133 35t-38 85z" />
<glyph unicode="5" horiz-adv-x="1078" d="M60 384q38 22 64 22t46 -14t37 -37t35 -48q46 -64 96 -83q110 -40 205 -12t166 97t113 162t45 184t-37 165t-125 100t-148 17t-122 -27t-122 -33t-141 -3q-109 139 -88 442q12 183 68 310q28 64 66 102q22 4 81 15t137 25t165 29t165 28q150 25 216 37q34 2 49 -16 t14 -44t-12 -55t-28 -50q-42 -52 -69 -21q-64 -8 -145 -6t-166 -3t-164 -22t-127 -55t-65 -102t-21 -145q-8 -153 16 -337q206 66 353 56t238 -71t130 -160t31 -215t-63 -229t-149 -196t-222 -122t-282 -5q-73 22 -149 121q-70 92 -91 199z" />
<glyph unicode="6" horiz-adv-x="1040" d="M55 1009q17 157 65 296q87 251 304 499q16 18 45 28t54 3q63 -18 41 -115q-421 -476 -364 -988q18 -162 70 -330q5 71 74.5 189.5t129.5 187.5t129 104q158 80 289 -83q80 -134 89 -259t-32 -227t-121 -174t-177 -102t-200 -10t-181.5 95t-136.5 242.5t-76.5 327 t-1.5 316.5zM386 224q225 -55 361 42q111 79 125 228q13 140 -57 219q-33 37 -81 44t-106 -33q-136 -92 -189 -216t-53 -284z" />
<glyph unicode="7" horiz-adv-x="1122" d="M47 1732q9 24 47 36q28 4 90 10t139 14t162 16t163 16q214 22 276 25t96 -7q85 -25 54 -114q-22 -50 -78 -238t-97 -324t-82 -277t-81 -278t-74 -251q-70 -234 -98 -314q-12 -4 -26 -21t-34 -24q-48 -17 -112 77q-2 2 4 16t22 63t48 145t83 263q119 391 303 1023 q16 42 -30 60t-124 20t-173 -7t-181 -21t-146 -22t-76 -6t-39 25t-34 46t-2 49z" />
<glyph unicode="8" horiz-adv-x="1156" d="M68 1444q-29 159 71 259q86 86 237 116q135 27 229.5 1t134.5 -56t73 -50t74 -21t125 33q14 6 34 -2t35 -25q38 -43 13 -75l-418 -658q207 -179 296 -428q40 -112 36 -215t-60 -174t-171 -101t-297 4q-190 95 -137 390q15 84 35 170t39 170t23 158q-28 12 -84 65 t-115 125q-144 176 -173 314zM215 1560q-44 -140 183 -374q31 -31 97.5 -71.5t68.5 -38.5l240 338q48 60 28 110t-79 86t-143 55t-165 15t-146 -32t-84 -88zM482 290q32 -126 163 -126q110 0 201 66q49 105 -3 251q-46 131 -132 223q-87 94 -131 74q-138 -331 -98 -488z" />
<glyph unicode="9" horiz-adv-x="882" d="M74 1194q-21 157 74 335q98 185 242 259q166 85 318 -22q135 -60 131 -338q-1 -76 -6 -149q-13 -196 -7 -241q-4 -69 1 -232.5t7 -273.5t5 -210t5 -178t4 -114q-35 -84 -88 -50q-40 25 -72 100l-32 950q-272 -87 -396 -40q-164 34 -186 204zM220 1184q110 -82 200 -65 t151 92t88 187t11 222q-86 101 -212 49q-56 -23 -107 -74t-86 -117q-80 -151 -45 -294z" />
<glyph unicode=":" horiz-adv-x="510" d="M159 1035q24 72 92 96q71 25 117 -59q18 -48 7 -91t-39 -69t-67 -28t-75 28q-62 43 -35 123zM165 557q11 33 36 59t56 36q73 24 117 -60q18 -48 7 -91t-39 -68t-67 -27t-75 28q-62 43 -35 123z" />
<glyph unicode=";" horiz-adv-x="484" d="M16 -632q229 268 196 510q0 6 -6 29t-13 50q-19 72 -21 77.5t-2 20.5t2 19q80 26 118 -38q107 -181 49 -410q-25 -98 -72 -177t-97 -121t-93 -37t-61 77zM126 601q12 33 39 61t59 38q77 24 124 -60q18 -50 6 -94t-42 -70t-71 -29t-79 29q-66 44 -36 125z" />
<glyph unicode="&#x3c;" horiz-adv-x="1180" d="M40 980q38 70 224 298t269 330q298 366 317.5 380t35.5 8q32 -12 96 -114l-706 -902q88 -108 321 -308q63 -54 104 -81t91 -65t102 -77q144 -108 190 -137q-28 -110 -65 -128q-17 -8 -31 -1t-37 22t-79 58t-121 95t-134 109t-133 109t-118 97t-87 70t-74 62t-79 75 q-91 91 -86 100z" />
<glyph unicode="=" horiz-adv-x="1466" d="M166 1128q-19 39 164 88q290 78 621 81q222 2 302 -58q41 -31 23 -83q-2 -6 -17 -21t-23 -19q-75 -6 -191.5 -9t-206.5 -6t-170 -6q-187 -7 -216.5 -7t-68.5 -7t-81 -9q-105 -5 -136 56zM232 624q-25 60 34 60q34 2 104 5t159 7t187 8t187 8t160 7t111 5t76 -1t57 -18 q43 -31 17 -137q-28 -2 -86 -5t-132 -8t-155 -9t-155 -8q-185 -10 -218 -10l-136 -2l-138 2q-20 14 -41 43t-31 53z" />
<glyph unicode="&#x3e;" horiz-adv-x="1138" d="M136 1686q-47 101 14 119q44 13 92 -11l836 -814v-118q-137 -125 -352.5 -345.5t-231.5 -238.5t-45 -56t-61 -81q-78 -105 -94 -141q-28 -19 -76 27q-18 17 -24 25l-18 26q5 144 281 424q75 76 148 147q180 175 237 253z" />
<glyph unicode="?" horiz-adv-x="1392" d="M64 1416q-16 84 24 161t114 137t173 99t202 50t200 -12t168 -87q160 -144 115 -448q-25 -170 -178 -279q-100 -71 -275 -124q-63 -19 -105 -32t-46 -25v-72l8 -266q2 -18 -10 -44t-34 -38q-56 -30 -104 70q-4 60 -9 128t-9 137q-8 138 -8 263q304 -11 485 133 q79 63 118 142t41 154t-33 137t-104 92q-160 70 -401 -64q-36 -18 -78 -62t-85 -86t-87 -66t-82 2zM339 122q7 46 41 78t81 35t81 -55q16 -42 6 -78t-37 -57t-63 -23t-70 24q-46 30 -39 76z" />
<glyph unicode="@" horiz-adv-x="2536" d="M164 698q8 210 92 398t219 342t307 269t355 179t364 74t334 -47t265 -185t153 -328t17 -370t-113 -294t-244 -190q-198 -84 -496 -28q-104 20 -185 87q-42 35 -88 93q-211 -185 -312 -123q-44 27 -55 92t6 145t63 162t117 144q162 142 377 90q79 -79 19 -273 q-35 -116 -26 -164.5t47 -72.5q283 -132 482 -26q174 93 240 334q62 226 -2 472q-179 290 -516 316q-305 24 -633 -167q-321 -187 -506 -490q-200 -327 -135 -651q72 -373 333 -543q231 -151 573 -125q311 24 633 194q313 166 511 412h78q-66 -172 -198 -312t-302 -240 t-365 -156t-390 -57t-376 56t-321 182t-227 323t-95 478zM908 756q0 -16 2 -20q37 -26 88 34t99 178q9 22 9 24q-47 34 -119 -56q-79 -98 -79 -160z" />
<glyph unicode="A" horiz-adv-x="1450" d="M107 96q9 114 64 348q132 563 423 1366q11 42 77 42q25 0 48 -11t29 -31q87 -314 141 -472q122 -352 247 -522q87 -29 96 -57q4 -13 -3 -28t-14 -33q-10 -25 -10 -49q0 -23 9 -45l194 -462l5 -26q5 -25 5 -48q0 -37 -12 -70q-10 -28 -38 -34l-76 70l-262 606l-628 -36 q-11 0 -65.5 -181t-60.5 -207t-12 -56t-11 -56t-13 -54t-29 -48q-11 -11 -33 -11q-20 0 -48 9q-4 -2 -8 -2q-17 0 -17 54q0 19 2 44zM478 816q-11 1 -11 -1t16 -8q29 -11 93 -19q54 -7 106 -7q117 0 222 35q2 11 2 24q0 122 -144 420q-75 156 -90 196q-131 -308 -181 -520 q-14 -61 -14 -98q0 -12 1 -22z" />
<glyph unicode="B" horiz-adv-x="1490" d="M90 1567q-7 13 -7 26q0 17 13 33q78 95 278 161q138 45 279 61q54 6 96 6q68 0 104 -16q59 -26 77 -78q10 -30 11 -66q0 -26 -6 -56q-13 -70 -33 -141t-36 -136q-9 -37 -9 -67q0 -22 5 -40q216 -12 342 -84t179 -181q43 -89 43 -193q0 -24 -2 -48q-12 -132 -73 -260 t-163 -241t-229 -184t-271 -88q-30 -4 -60 -4l-228 51q-14 6 -48 19t-75 33t-82 45t-70 56q-43 46 -43 92q0 26 14 53q6 19 38 29.5t38 8.5q5 96 9.5 245t9.5 258t8 209l11 299q0 32 -24 64q-26 35 -53 69t-43 65zM324 210q12 -12 56 -35q72 -37 100 -43q53 -8 104 -8 q210 0 389 135q99 75 169 175t103 205q27 87 27 166q0 17 -1 34q-7 95 -61 160t-158 88q-37 8 -81 8q-80 0 -185 -27q-36 -10 -97 -26t-126 -39q-156 -55 -199 -123q-29 -469 -40 -670zM364 1552l36 -448q155 117 218 195q105 126 168 289q9 24 9 43q0 58 -82 73 q-25 4 -51 4q-78 0 -171 -37q-53 -21 -90 -53t-37 -66z" />
<glyph unicode="C" horiz-adv-x="1372" d="M58 824q16 228 118 509q178 490 464 536q22 4 45 4q61 0 129 -25q70 -27 126 -154q44 -98 44 -173q0 -21 -4 -41q-13 -74 -76 -74q-23 0 -52 10q1 20 1 38q0 215 -76 268q-24 17 -54 17q-56 0 -134 -60q-102 -79 -204 -233q-95 -144 -121 -264q-58 -189 -70 -428 q-2 -43 -2 -84q0 -386 199 -493q57 -31 129 -30q34 0 71 6q117 21 190 55t138 77t130 91t147 94q23 13 43 13q31 0 57 -29q27 -30 27 -62q0 -18 -10 -38q-27 -52 -96 -107t-161 -104t-198 -88t-207 -56q-74 -12 -134 -12q-124 0 -185 53q-187 160 -245 348q-35 115 -35 284 q0 71 6 152z" />
<glyph unicode="D" horiz-adv-x="1550" d="M58 1620q-9 18 -9 37q0 31 26 60q41 47 125 81t202 49q55 7 113 7q66 0 135 -9q130 -17 262 -71t245 -156q250 -225 313 -642q9 -58 9 -116q0 -241 -156 -466q-87 -126 -212 -222t-268 -146t-277 -50q-162 0 -312 72q-18 6 -38 40t-20 40v1370q-33 13 -82.5 62.5 t-55.5 59.5zM370 385q0 -91 2 -135q14 -56 82 -78q45 -15 102 -15q28 0 60 4q94 11 203 54t206 118t170 184t97 250q10 60 10 123q0 266 -186 570q-77 130 -258 214q-118 55 -215 55q-57 0 -106 -19q-69 -26 -115 -96t-50 -196l-2 -341v-692z" />
<glyph unicode="E" horiz-adv-x="1352" d="M158 1754q88 15 247 32.5t225 25.5q111 13 163.5 17.5t113.5 11.5q43 5 89 5q20 0 41 -1q179 -8 219 -91q12 -26 -4 -47t-34 -31q-20 2 -70 2h-185.5t-103.5 -2t-91 -7t-143 -15q-191 -25 -271 -56q-10 -4 -24 -19t-14 -21v-470h706v-78l-706 -118l-40 -40 q-11 -11 -17.5 -205.5t-6.5 -246.5t2 -86q9 -163 354 -163q36 0 77 2q173 9 339 27q150 17 200 16h10q42 -22 42 -59t-42 -59q-24 -4 -73 -10t-110 -14t-130 -16t-130 -16q-141 -18 -184 -22q-27 -2 -66 -3q-22 0 -48 1q-71 2 -147 11q-182 22 -248 69l22 1440 q-41 97 -41 128q0 56 79 108z" />
<glyph unicode="F" horiz-adv-x="1352" d="M78 156q-10 362 -10 693q0 592 32 1085q7 4 16 4q24 0 62 -22q54 -32 80 -52t38 -28h940l78 -98l-38 -58h-1020v-726l59 -2l59 2q84 14 187 39t211 47q190 38 325 38q55 0 101 -6q42 -8 42 -58q0 -20 -11 -38t-31 -22l-962 -218l18 -696q-28 -18 -65 -19h-4q-34 0 -63 15 q-52 28 -52 77q0 20 8 43z" />
<glyph unicode="G" horiz-adv-x="1530" d="M54 696q0 100 8 215t26 238t50 237t80 212t115 163q109 105 242 105q71 0 150 -30q147 -57 232 -137q53 -50 53 -97q0 -21 -10 -42q-23 -9 -48 -9q-52 0 -116 41q-40 26 -80 57t-82 51t-88 20t-85 -28t-67 -74t-50 -94t-36 -87t-16 -43q-141 -448 -141 -736q0 -72 9 -134 q38 -267 225 -324q52 -16 109 -16q125 0 278 74q208 100 348 274q120 150 120 271q0 28 -6 55q-10 2 -39 2t-42 -2t-70 -14t-123 -27q-154 -35 -193 -41q-10 -2 -20 -2q-27 0 -50 13q-31 17 -46 45t-9 59t42 49q6 2 22 9t35 14q32 12 106.5 34.5t189.5 48.5q79 18 144 18 q30 0 57 -4q159 -22 159 -203q0 -37 -7 -81q-40 -192 -149 -346t-260 -252t-330 -128q-64 -11 -128 -11q-115 0 -231 35q-118 33 -196 183q-69 133 -78 271q-4 68 -4 168z" />
<glyph unicode="H" horiz-adv-x="1412" d="M68 180q-1 11 -1 23q0 24 3 51q4 40 7 93t9 155t14 230t16 268t16 268t14 229t9 132t12 77t27 87t48 54q6 2 12 2q26 0 60 -45v-17q0 -61 -16 -196q-20 -155 -28 -246q-6 -66 -6 -123q0 -21 1 -41q7 -161 81 -162q3 0 6 1q84 6 179 12t191 14q232 19 376 52q65 60 69 350 q4 330 27 414q19 6 41 6q13 0 27 -2q38 -6 50 -42q3 -86 5.5 -585t3.5 -677t1 -315l1 -189q0 -46 -26 -66q-27 -20 -60 -24q-8 -1 -16 -1q-24 0 -45 9q-28 12 -28 36l8 850q-56 41 -192 41q-163 0 -440 -59q-84 -18 -151 -35t-99 -25q-21 -146 -32.5 -357t-11.5 -276t4 -111 q-20 -43 -51 -43h-6q-35 5 -61 44t-36 72t-12 67z" />
<glyph unicode="I" horiz-adv-x="318" d="M74 1794q0 48 24 66q20 15 43 15q5 0 11 -1q30 -4 54 -26t24 -54l4 -1794q-16 -39 -60 -39h-4q-47 2 -66 67z" />
<glyph unicode="J" horiz-adv-x="1582" d="M12 1542l1514 330q13 0 26.5 -35t13.5 -43q0 -40 -300 -122q-80 -22 -154 -42q-175 -47 -214 -72q-8 -77 -8 -158.5t8 -168.5q16 -173 39 -352t40 -353q10 -102 10 -198q0 -67 -5 -132q-45 -149 -194 -183q-41 -9 -85 -9q-27 0 -54 3q-73 9 -119 26t-95 40t-102 56 t-104 74t-82 85q-33 46 -33 89q0 49 44 93l20 -18q20 -18 51 -47t68 -63t72 -64q85 -73 103 -82q108 -55 191 -55q68 0 120 36q88 62 88 205q0 41 -7 88q-7 35 -36.5 225.5t-49.5 311.5t-38 230q-26 159 -54 307l-572 -104z" />
<glyph unicode="K" horiz-adv-x="1450" d="M107 1477q3 175 11 327q0 38 45 38q7 0 15 -1q56 -7 76 -37v-588q6 -2 14 -2q88 0 410 237q244 180 345 245.5t157 87.5q29 12 49 12q18 0 29 -10q10 -9 10 -31q0 -26 -14 -69q-50 -68 -371 -282q-465 -310 -531 -412q-22 -34 0 -50l864 -628q117 -85 155 -192 q9 -24 9 -44q0 -34 -25 -59q-15 -15 -23 -19q-130 116 -247 227t-241 207q-277 215 -590 312l2 -738l-136 38q-17 450 -17 936q0 243 4 495z" />
<glyph unicode="L" horiz-adv-x="1328" d="M110 304l36 1482q4 44 30 64q22 17 46 17q5 0 10 -1q30 -4 54 -34t24 -84q-52 -364 -55 -890v-32q0 -362 44 -533q25 -97 66 -108t69 -19t63 -13t87 -7q21 -1 47 -1q40 0 92 2q222 8 549 31q7 -35 7 -63q0 -39 -13 -66q-10 -21 -34 -27q-424 -13 -617 -13q-75 0 -115 2 q-142 7 -213 25t-108 53t-50 87t-19 128z" />
<glyph unicode="M" horiz-adv-x="1902" d="M63 1672q17 30 47 49q28 18 60 18h3q33 -1 47 -39q2 -4 14 -22t25 -38q32 -49 41 -58l692 -654l524 862q39 28 77 28q19 0 37 -7q46 -17 46 -65q0 -10 -2 -22q10 -106 17 -246t16 -294t20 -314t26 -310q34 -339 87 -502q-10 -70 -34 -89q-21 -16 -43 -16h-7q-26 3 -48 16 t-28 11q-4 29 -23 192.5t-32 275.5t-27 228t-28 228t-25 206q-27 229 -29 260l-490 -748l-802 776l46 -1340q0 -52 -68 -52h-13q-31 2 -59 12t-32 22q-2 40 -3 121t-4 187t-5 230t-5 252t-5 252t-5 231t-4 188t-3 121q-9 10 -9 23q0 12 8 27z" />
<glyph unicode="N" horiz-adv-x="1490" d="M62 1449q-1 33 -1 63q0 155 26 224q31 82 67 85h4q34 0 76 -43q44 -46 90 -112t89 -137t79 -119q65 -74 275.5 -377t279.5 -398q156 -215 189 -215l-18 1398q0 36 67 43q18 2 36 2q28 0 53 -5q2 -30 5 -122t8 -216t9 -264t8 -263t6 -216t4 -140t7 -127q4 -57 4 -116 q0 -24 -1 -48q-5 -205 -50 -318q-16 -24 -40 -40l-1076 1462q-4 -8 -4 -50q0 -54 6 -166q12 -198 19 -344t8 -292v-36q0 -126 -6 -241q-7 -131 -27 -219t-58 -121q-15 -13 -33 -13q-28 0 -65 32q1 18 1 47.5t-1 70.5q-2 82 -4 192t-6 239t-8 259t-8 254t-6 223t-4 164z" />
<glyph unicode="O" horiz-adv-x="1372" d="M38 849v29q0 162 41 322q45 174 125 315t186 233t226 104q208 -39 352 -195q100 -108 181 -298q31 -73 50 -133t35 -94q38 -164 39 -310q0 -222 -89 -403q-66 -135 -171 -221t-226 -114q-55 -13 -111 -13q-68 0 -139 19q-129 34 -251 145t-183 274t-65 340zM206 868 q5 -382 249 -548q96 -66 207 -82q22 -3 43 -4q31 0 61 8q297 71 348 497q9 71 9 148q0 67 -7 139q-116 316 -245 470q-128 153 -249 153q-83 0 -163 -72q-156 -140 -223 -430q-30 -131 -30 -263v-16z" />
<glyph unicode="P" horiz-adv-x="1432" d="M72 1534q-6 12 -6 24q0 32 38 70q52 52 149 101t227 86t265 48q42 3 84 3q91 0 177 -16q126 -24 217 -97q157 -126 157 -373q0 -75 -14 -160q-29 -186 -214 -330q-214 -167 -589 -258q-99 -24 -177 -40l-40 -38l-14 -514l-38 -40q-17 6 -47.5 39t-34.5 43t-14 39t-19 60 q-23 79 -23 93l14 1102q-24 32 -45 67t-35 58t-18 33zM344 896q0 -46 2 -68q51 -9 108 -9q107 0 234 31q328 78 464 285q48 73 59 176q3 28 3 55q0 70 -21 129q-29 81 -86 132t-135 75q-75 23 -154 23h-7q-83 -1 -165 -24t-147 -63q-145 -89 -153 -222q-2 -22 -2 -129v-391z " />
<glyph unicode="Q" horiz-adv-x="1742" d="M57 573q-13 91 -13 186q0 177 46 369q71 294 231 492q171 213 391 224q325 -15 491 -273q140 -219 156 -572q2 -51 2 -101q0 -250 -53 -494q15 -20 92.5 -101t124.5 -132t83 -96q65 -81 65 -112q0 -8 -5 -13l-118 6q-25 16 -91.5 65t-112.5 82t-87 63q-92 67 -117 84 q-22 -14 -68 -52t-112 -78t-147 -73t-173 -38q-13 -1 -26 -1q-194 0 -362 154q-156 133 -197 411zM209 753q-1 -26 -1 -51q0 -101 16 -185q20 -105 60 -153q134 -173 321 -175h5q181 0 342 141q50 27 50 67q0 39 -47 90q-41 45 -102 93t-114 92t-84 83q-18 23 -18 41 q0 13 9 24l118 -6l386 -314q55 169 55 347q0 95 -16 193q-44 278 -181 449q-134 167 -300 167q-17 0 -34 -2q-215 -63 -345 -354q-108 -243 -120 -547z" />
<glyph unicode="R" horiz-adv-x="1686" d="M78 1776q17 4 32 4q17 0 32 -5q28 -9 55 -21q45 -20 80 -20q20 0 37 6q258 148 483 147q116 0 223 -39q224 -72 235 -254q1 -9 1 -18q0 -74 -38 -152q-42 -88 -120 -166q-42 -42 -105 -102t-110 -105t-90 -85t-77 -72t-50 -46v-36q239 -127 347.5 -206.5t151.5 -117.5 t88 -79t93 -86t95 -89t84 -80q83 -81 83 -84v-74q-13 -3 -27 -3q-55 0 -124 44q-87 55 -191 145t-221 196t-239 194q-239 172 -425 172q-35 0 -67 -6v-704q0 -24 -22 -35q-19 -9 -42 -9h-8q-74 5 -86 44q-14 216 -31 433t-30 435q-21 355 -21 640q0 124 4 234zM274 1478 q-7 -91 -7 -174q0 -221 47 -382q19 -6 41 -6q116 0 311 156q345 253 404 435q12 36 12 67q0 38 -18 67q-32 53 -100 78q-63 23 -148 23h-14q-94 -2 -191 -32q-223 -69 -337 -232z" />
<glyph unicode="S" horiz-adv-x="1470" d="M48 497q-3 23 -3 43q0 32 8 54q13 36 41 40h5q26 0 59 -36q38 -194 235 -325q183 -122 408 -128h24q216 0 337 121q108 108 108 286q0 64 -14 136q-24 70 -94 133t-163 123t-198 120t-201 127t-173 142t-113 165q0 207 172 298q102 53 242 54q59 0 124 -10 q204 -30 332 -128q92 -71 92 -144q0 -35 -20 -70q-5 -3 -13 -3q-27 1 -91 31q-84 40 -146 70t-128 55t-130 39q-41 9 -78 9q-21 0 -41 -3q-121 -18 -157 -152q30 -92 106 -159t173 -125t206 -114t207 -124q225 -156 280 -366q5 -52 5 -101q0 -273 -144 -420 q-144 -148 -420 -150h-9q-241 0 -502 101q-197 111 -282 279q-36 71 -44 132z" />
<glyph unicode="T" horiz-adv-x="1862" d="M67 1706q-14 25 -14 49q0 26 17 51q899 42 1450 43q127 0 236 -3q28 -70 28 -110q0 -11 -2 -20q-6 -24 -40 -24q-86 -5 -193 -5h-37q-65 0 -131.5 0.5t-133.5 -0.5q-336 -2 -471 -37q3 -56 3 -147v-48q-1 -125 -2 -277t-1 -316t5 -311q12 -349 43 -433q1 -10 1 -19 q0 -29 -14 -53q-19 -32 -46 -43q-11 -4 -22 -4q-16 0 -33 9q-28 16 -44 85t-31 195t-27 272t-20 304t-12 306q-3 124 -3 226q0 154 7 260l-442 -6q-41 4 -71 56z" />
<glyph unicode="U" horiz-adv-x="1314" d="M60 1614q10 112 39 170q21 42 48 42q22 0 47 -27q14 -15 18 -21q6 -96 6 -230t7 -286t26 -313t63 -309q100 -335 314 -484q33 -5 64 -5q272 0 340 423q28 171 28 397q0 93 -5 195q-7 154 -15 287t-13 235q-2 39 -2 69q0 48 5 74q8 41 32 45q6 1 12 1q19 0 39 -9 q27 -12 50 -32t27 -36q37 -308 37 -742q0 -104 -2 -215q-3 -153 -9 -255q-48 -207 -86 -290.5t-84 -139.5t-114 -91q-89 -46 -211 -46q-79 0 -171 19q-164 51 -294 359q-113 267 -166 633q-36 248 -36 437q0 77 6 145z" />
<glyph unicode="V" horiz-adv-x="1490" d="M37 1739q-2 17 -2 31q0 32 8 55q11 34 42 34q36 0 99 -47q36 -94 78 -218t90 -261t102 -282t113 -285q132 -314 257 -492q166 273 290 773q71 285 112.5 490t67.5 319q12 7 29 7q11 0 25 -3q34 -8 62 -26t43 -44q7 -12 7 -24q0 -14 -10 -28q-26 -116 -57 -258t-67 -296 t-78 -312t-90 -307q-107 -333 -216 -525q-24 -39 -62 -39q-7 0 -14 1q-48 8 -90 44q-210 195 -394 659q-52 131 -98 263q-127 365 -156.5 438.5t-44.5 120.5t-28 103t-18 109z" />
<glyph unicode="W" horiz-adv-x="2000" d="M42 1766q4 16 24 39t44 35q19 10 35 10q34 0 53 -44q22 -79 50 -306.5t48 -369.5t49 -282q69 -332 159 -496q11 0 76.5 175t75.5 205t20 67t22 83t24 97t24 98t20 84t12 55q14 4 28 4q24 0 46 -12q58 -32 82 -70q60 -124 113 -242t113 -227q132 -240 316 -399 q225 347 264 982q10 162 14 291t10 215t28 106q12 24 41 25h4l54 -12q29 -13 49 -38q15 -19 15 -41q0 -7 -1 -14q-18 -228 -33 -456t-48 -449q-76 -507 -271 -839q-25 -15 -56 -15q-70 0 -166 82q-160 136 -358 476q-52 89 -88 163q-27 44 -57 44q-10 0 -21 -6 q-38 -114 -90 -260t-75 -211t-42 -118t-27 -77q-32 -84 -76 -109q-14 -8 -30 -8q-38 0 -92 39q-139 240 -260 843q-100 495 -122 883z" />
<glyph unicode="X" horiz-adv-x="1380" d="M18 128q2 10 6 14l566 750l-570 884l84 70q126 -139 429 -570q137 -195 169 -252q16 24 61 98t105 169t127 192t127 167q89 103 134 103q26 0 38 -33q2 -10 1 -28t-2 -37q-2 -39 -9 -53l-482 -730l428 -590q114 -11 142 -100q9 -27 9 -55q0 -45 -23 -92q-14 -29 -34 -41 q-8 -5 -15 -5q-11 0 -21 11l-506 636q-40 46 -71 46q-7 0 -13 -2q-26 -9 -59 -48.5t-72 -85.5t-88 -106t-104 -126t-104 -126t-86 -108t-53 -68q-13 -3 -27 -3q-20 0 -44 6q-47 13 -47 72q0 18 4 41z" />
<glyph unicode="Y" horiz-adv-x="1294" d="M42 1622q-8 18 -8 36q0 26 18 50q8 2 17 2q102 0 319 -259q66 -79 130 -159t125 -154t112 -123t89 -67q14 -6 25 -6q21 0 35 20q56 83 87 303q13 91 24 185t30 178q44 193 143 258q50 -24 66 -58q10 -21 10 -48q0 -17 -4 -36l-414 -1732q-4 -14 -20 -34t-39 -31 q-19 -9 -34 -9q-33 0 -49 40q-7 35 -7 68q0 39 9 76q16 70 42 156t52 199t32 273q-91 91 -164.5 169.5t-139.5 148.5t-125 133q-136 145 -173 189q-12 20 -52 58t-78 83t-58 91z" />
<glyph unicode="Z" horiz-adv-x="1576" d="M64 128l706 1104q76 114 133 265q27 72 27 120q0 19 -4 33q-20 10 -52 10q-82 0 -243 -63q-206 -80 -295 -80q-14 0 -24 2q-88 15 -92 131q13 13 185.5 55.5t250.5 62.5q176 44 278 66q44 9 79 10q45 0 74 -16q51 -28 57 -93q1 -10 1 -21q0 -59 -27 -141 q-32 -97 -89 -212t-131 -241t-152 -249t-152 -237t-131 -206q-118 -190 -118 -232q0 -3 1 -6q27 -4 64 -5q92 1 246 27q218 36 349 57t240 27q33 2 62 2q69 0 120 -10q73 -14 85 -64q4 -22 4 -46v-16q-2 -32 -8 -34l-1248 -138q-18 -3 -39 -3q-24 0 -49 4q-57 8 -97 94 q-12 26 -12 37q0 4 1 6z" />
<glyph unicode="[" horiz-adv-x="1006" d="M41 309q-1 153 8 334t25 363t36 353t42 304q49 294 76 301q240 50 468 88q50 8 100 -8t73 -30t28 -28t-13 -28t-70 -24l-428 -88q-72 -11 -128 -599q-51 -531 -44 -972q4 -287 40 -287h582q46 0 74 -49q29 -50 4 -87h-778q-4 0 -18 14q-48 48 -62 169t-15 274z" />
<glyph unicode="\" horiz-adv-x="942" d="M14 1746q-12 26 1 57t35 52t47 27t35 -18l770 -1786q-54 -76 -114 -69q-55 6 -82 69z" />
<glyph unicode="]" horiz-adv-x="1058" d="M48 -148q-25 37 4 87q28 49 74 49h582q52 0 38 581q-13 553 -78 976q-45 294 -92 301l-428 88q-52 10 -70 24t-13 28t28 28t54 24q69 22 118 14t110 -19t125 -23q132 -25 234 -46q28 -8 63 -221t55 -384t36 -353t25 -363t8 -334q-2 -339 -57 -419q-6 -10 -20 -24t-18 -14 h-778z" />
<glyph unicode="^" horiz-adv-x="812" d="M104 710l264 400q37 70 109 23q61 -40 87 -103l170 -316q6 -40 -10 -57t-40 -19t-48 8t-32 22l-172 252l-202 -282q8 -4 -8 -12t-40 -5t-47 22t-31 67z" />
<glyph unicode="_" horiz-adv-x="1902" d="M94 84q0 60 4 72q18 4 62 10t94 13q121 17 156 17l336 2h472l330 -2q204 0 265 -65q29 -31 9 -91q-4 -12 -199 -17t-349 -8t-314 -4t-314 0t-275 5q-269 9 -273 24q-4 12 -4 44z" />
<glyph unicode="`" horiz-adv-x="552" d="M80 1532q2 24 37 51t79 43l316 -248q-4 -33 -29 -59q-44 -47 -81 -47z" />
<glyph unicode="a" d="M60 487q0 105 23 209t67 200t106 165q115 128 256 128q28 0 56 -5q218 -41 293 -390q21 -98 38 -196t34 -187t45 -153t71 -94q25 -17 59 -18q25 0 54 10q126 130 183 130q8 0 15 -3q19 -8 19 -37v-8q-3 -36 -26 -80t-63 -86t-91 -64q-41 -18 -82 -18q-79 0 -157 66 q-27 18 -58.5 83t-49.5 103t-38 66q-33 47 -66 47q-12 0 -24 -7q-40 -66 -81 -128t-90 -106q-77 -69 -176 -69q-40 0 -83 11q-153 41 -209 238q-25 88 -25 193zM197 632q-14 -79 -14 -145q0 -114 41 -191q63 -97 139 -97q39 0 81 26q104 64 184 237q61 134 61 224 q0 20 -3 38q-10 48 -16 86t-13 68q-15 63 -41 106q-66 46 -128 46q-76 0 -145 -70q-107 -109 -146 -328z" />
<glyph unicode="b" horiz-adv-x="1030" d="M70 1295q0 309 8 549q6 34 31 45q16 7 34 7q10 0 20 -2q29 -6 53 -25t26 -45q-7 -194 -7 -335q0 -153 8 -245q15 -178 31 -288q94 124 193 156q47 15 92 15q49 0 95 -18q88 -35 161 -122t116 -199t51 -236l2 -40q0 -102 -35 -192q-41 -108 -137 -186t-260 -100 q-137 -19 -197 -19q-13 0 -22 1q-96 11 -215 96q-48 425 -48 1183zM268 484q-16 -69 -16 -125q0 -118 72 -171q46 -34 112 -34t136 27q157 61 252 195q40 55 40 136q0 58 -21 130q-45 159 -157 254q-67 57 -130 57q-50 0 -97 -36q-129 -97 -191 -433z" />
<glyph unicode="c" horiz-adv-x="1176" d="M54 350q-20 124 -20 230q0 215 80 361q99 182 298 233q72 19 140 19q92 0 174 -35q62 -26 94 -67q21 -27 21 -58q0 -15 -5 -31q-29 -7 -56.5 -7t-52.5 7q-51 14 -103 27t-107 14h-3q-54 0 -114 -41q-92 -66 -147 -159t-74 -191q-10 -52 -10 -102q0 -45 8 -89 q17 -93 72 -163t148 -106q66 -25 144 -25q33 0 68 4q119 15 198 57t143 84t118 69q34 17 70 17q21 0 44 -6q10 -28 10 -55q0 -44 -26 -84q-42 -65 -124 -115t-189 -83t-212 -47q-74 -10 -134 -10q-131 0 -193 48q-89 27 -170 119q-78 89 -90 185z" />
<glyph unicode="d" horiz-adv-x="1098" d="M91 204q-12 42 -12 94q0 66 19 150q66 156 166 247t206 135t206 48q17 1 32 1q79 0 136 -17l18 994q28 8 53 8q35 0 62 -16q17 -10 23 -30l20 -1740q-30 3 -60 3q-65 0 -134 -14q-102 -21 -205 -41t-202 -24h-20q-87 0 -151 32q-72 36 -107 77t-50 93zM233 246 q17 -58 61 -80t104 -27q20 -2 41 -1q42 0 89 6q70 10 135 26q136 33 201 66q5 61 5 114q0 215 -84 308q-58 64 -142 64q-47 0 -102 -20q-145 -52 -240 -189q-45 -65 -65 -137q-11 -39 -11 -74q0 -29 8 -56z" />
<glyph unicode="e" horiz-adv-x="1036" d="M94 302q-16 118 -16 226q0 208 60 381q72 205 246 263q47 16 103 15q52 0 113 -13q74 -16 161 -124q110 -136 111 -235q0 -37 -16 -69q-20 -42 -80 -62q-66 -8 -134 -13t-137 -14q-157 -21 -267 -63q-8 -71 -8 -125q0 -68 12 -112q24 -79 71 -128t139 -61q25 -3 53 -3 q200 0 541 169q22 -33 22 -62q0 -62 -53 -97t-133 -74t-169 -65t-183 -32q-18 -1 -35 -1q-75 0 -143 21q-188 58 -258 278zM276 812l426 28q34 2 34 26q0 3 -1 7q-5 31 -36 68t-83 71t-98 39q-19 2 -37 2q-24 0 -45 -4q-36 -7 -68 -32q-70 -55 -92 -205z" />
<glyph unicode="f" d="M41 719q3 23 37 23l380 6q1 24 1 50q0 64 -4 138t-4 153q0 32 1 64q5 281 62 449q36 110 109 170t158 81q53 13 106 13q33 0 66 -5q87 -13 153 -50t100 -92q21 -35 21 -72q0 -22 -7 -45q-50 12 -107 32t-115 36t-114 20q-9 1 -17 1q-47 0 -88 -19q-107 -48 -147 -228 l-6 -702l470 40q11 -21 11 -39q0 -53 -88 -91q-78 -34 -190 -49q-143 -19 -180 -19q-13 0 -13 2l-4 -570l-154 -4l2 279q0 249 -22 277l-374 28l-14 23q-30 49 -30 87q0 7 1 13z" />
<glyph unicode="g" horiz-adv-x="902" d="M-139 -485q11 27 32 48t46 30t41 -5q34 -34 56 -65t51 -64q67 -76 195 -155q71 -27 131 -27q90 0 153 62q126 123 126 430v33q-4 190 -33 300t-51 154q-192 -95 -324 -95q-60 0 -107 20q-132 55 -145 244q-2 23 -2 46q0 155 69 329q81 205 205 315q93 83 183 83 q42 0 83 -18q108 -54 156 -150t64 -210q13 -91 13 -185q0 -23 -1 -47q-2 -59 -2 -109t2 -91q4 -82 14 -182t17 -216t7 -239t-16 -235t-53 -203t-103 -145t-168 -61q-12 -1 -25 -1q-93 0 -208 46q-131 52 -227 138t-178 180q-6 9 -6 21q0 11 5 24zM214 372q2 -6 17 -21 t23 -17q40 -13 78 -13q87 0 161 68q95 87 129 241q15 67 15 129q0 83 -27 155q-28 90 -76 107q-16 6 -33 6q-33 0 -68 -23q-53 -34 -105 -107t-86 -163q-49 -129 -49 -235q0 -68 21 -127z" />
<glyph unicode="h" horiz-adv-x="1098" d="M67 974q-1 131 -1 261q0 313 8 625q20 8 37 8q44 0 77 -46q42 -59 42 -142l38 -1032q191 296 340 334q24 6 45 6q33 0 58 -15q41 -25 67 -55q32 -74 57 -129t44 -105t36 -103t35 -122t38 -162t48 -223q-28 -64 -64 -79q-7 -3 -14 -3q-27 0 -44 48q-72 214 -111 346 t-65 210t-50 118t-66 68q-106 -54 -168 -142t-108 -192t-89 -217t-107 -219q-14 5 -45 44.5t-33 45.5q0 428 -5 872z" />
<glyph unicode="i" horiz-adv-x="342" d="M85 1082v7q0 27 20 54q23 31 52 44t55 6t30 -43l40 -1032q0 -32 -24 -62t-53 -43q-14 -6 -27.5 -6.5t-26.5 6.5q-25 13 -25 65q0 6 -3 76t-7 174t-8 225t-9 230t-8 189t-6 110zM86 1471q22 55 78 76q15 5 28 5q37 0 62 -44q6 -19 7 -37q0 -47 -44 -84q-25 -21 -56 -25 q-5 -1 -9 -1q-26 0 -48 19q-27 18 -27 50q0 18 9 41z" />
<glyph unicode="j" horiz-adv-x="396" d="M-382 -360q4 2 10 2q31 0 98 -78q34 -40 73 -89t79 -91t81 -69q37 -24 72 -24h8q84 6 135 179q2 68 2 147q0 215 -18 508q-24 401 -32 558q-12 232 -12 399q0 93 4 166h88q35 -84 56.5 -311t32.5 -380t19 -292q17 -301 30 -411q5 -79 5 -149q0 -517 -248 -563 q-18 -3 -38 -3q-63 0 -145 33q-54 20 -115 74t-109 122q-85 121 -85 214q0 30 9 58zM58 1605q18 33 53 38q6 1 12 1q30 0 62 -20q39 -24 51 -68q4 -16 4 -28q0 -24 -14 -39q-22 -23 -55 -29q-10 -2 -21 -2q-22 0 -43 9q-31 13 -39 43q-17 38 -17 65q0 17 7 30z" />
<glyph unicode="k" horiz-adv-x="1070" d="M81 1250q8 410 13 566q14 38 43 54q21 12 42 12q8 0 15 -2q28 -6 51 -32t25 -70l-40 -764q36 24 86 60t104 74t104 74t92 64q30 20 59 20q11 0 23 -3q40 -11 60 -42q17 -26 17 -58q0 -6 -1 -13q-4 -40 -46 -66q-72 -42 -125 -63t-99 -42q-102 -47 -190 -157 q34 -56 89 -102t119 -92t134 -96t137 -115q156 -151 231 -339q2 -7 2 -14q0 -39 -75 -69q-23 -9 -43 -11q-91 182 -452 514q-100 92 -198 184v-670q0 -45 -47 -45q-11 0 -25 2q-28 5 -53 18t-31 25q-25 303 -25 775q0 197 4 423z" />
<glyph unicode="l" horiz-adv-x="352" d="M110 1784q27 72 78 72q22 0 39 -11t21 -27q24 -464 24 -1506q0 -150 2 -278q-10 -32 -36 -47q-23 -13 -47 -13h-6q-27 2 -48 21t-21 55z" />
<glyph unicode="m" horiz-adv-x="1804" d="M80 16q-1 16 -1 47q0 77 7 247q10 238 13 325q5 151 5 226q0 33 -1 51q-1 13 -1 25q0 45 9 80q11 45 31 58q9 6 20 6q34 0 80 -59l26 -212q137 226 265 237q7 1 14 0q97 0 174 -121q70 -110 103 -270q102 204 291 384q133 127 251 159q29 8 57 8q161 0 249 -283 q58 -184 58 -428q0 -108 -7 -220t-11 -230q-64 -45 -92 -45h-2q-53 2 -64 87q2 52 13 146t17 202q4 65 4 130q0 43 -2 86q-4 108 -32 191q-53 156 -185 156q-28 0 -59 -7q-189 -50 -350 -568q-45 -144 -76 -294q-58 -45 -97.5 -45t-60.5 45q-17 204 -26.5 299t-11.5 119 q-28 144 -74 213t-100 73h-7q-51 0 -103 -52q-56 -56 -104 -164l-64 -602q-16 -46 -68 -46h-11q-25 2 -47 15t-30 31z" />
<glyph unicode="n" d="M58 128q61 235 61 539q0 177 -21 377q25 52 55 52q16 0 33 -15q35 -31 63 -100q45 -115 45 -145q44 38 81 97t76 118t85 105t110 56q38 7 74 7q189 0 301 -196q102 -179 134 -512q12 -125 12 -244q0 -114 -11 -223q-22 -46 -59 -46t-59 46q-24 415 -98 703 q-60 232 -153 289q-22 14 -47 14q-87 0 -201 -175q-75 -115 -167 -331q-14 -28 -39 -103t-43 -125t-33 -96t-27 -82t-16 -54q-19 -48 -52 -48q-16 0 -36 12q-24 14 -44 38t-24 42z" />
<glyph unicode="o" horiz-adv-x="1064" d="M37 552q9 102 48 199t104 183t148 147q148 109 311 109q38 0 76 -6q88 -14 151 -83t100 -171t47 -224q3 -39 4 -78q0 -82 -15 -163q-21 -119 -72 -221t-134 -165t-201 -74q-19 -2 -39 -2q-101 0 -214 48q-135 57 -202 135t-94 171q-20 70 -20 145q0 24 2 50zM210 581 q-10 -50 -10 -95q0 -165 132 -260q111 -72 203 -72q15 0 30 2q103 14 173 88t105 189q31 101 31 205q0 15 -1 30q-5 120 -52 223t-143 155q-26 13 -55 13q-33 0 -71 -16q-72 -31 -141 -100t-125 -165t-76 -197z" />
<glyph unicode="p" horiz-adv-x="1138" d="M112 1050q103 95 295 123q69 10 136 10q116 0 225 -31q299 -86 299 -313q0 -79 -49 -177q-30 -42 -85 -121t-143 -167q-219 -219 -496 -294q6 -69 6 -211.5t-2 -233.5t-4 -178t-6 -162t-6 -129q-55 -72 -88 -72h-3q-33 4 -57 62q-3 408 -14 862q-12 478 -12 762 q0 170 4 270zM278 332q0 -50 2 -60q10 -5 24 -5q28 0 72 19q66 28 144 85t158 133t139 156q97 132 97 221q0 35 -14 63q-4 8 -30 27t-69 37t-100 30q-43 9 -91 9q-16 0 -32 -1q-150 -9 -290 -116q-3 -15 -5.5 -211.5t-3.5 -266.5t-1 -120z" />
<glyph unicode="q" horiz-adv-x="1000" d="M66 396q0 203 129 429q139 244 320 326q71 32 139 32q136 0 260 -127q12 -40 12 -428l-2 -448q0 -395 20 -480q0 -20 9 -148t13 -188t8 -98q1 -6 1 -11q0 -33 -20 -66q-23 -39 -53 -55q-18 -10 -36 -10q-11 0 -21 4q-27 10 -29 46l-78 968q-215 -78 -361 -78 q-100 0 -168 36q-143 74 -143 296zM228 300q49 -90 167 -90q33 0 72 7q69 13 128 41t84 50t45 74t32 116t15 134q1 26 1 52q0 42 -3 82q-11 145 -53 200q-36 48 -88 48q-8 0 -17 -1q-63 -9 -127 -63t-122 -141t-97 -181q-57 -137 -57 -232q0 -55 20 -96z" />
<glyph unicode="r" horiz-adv-x="908" d="M78 876q0 23 15 60.5t31 59.5t36 30q9 3 17 3q39 0 81 -69q62 54 111 99t108 77q108 58 284 58q35 0 73 -2q16 -6 28 -24t14 -37v-9q0 -40 -42 -46q-385 -78 -484 -288q-55 -116 -57 -343v-40q0 -81 3 -171q2 -45 2 -91q0 -70 -4 -143q-44 -16 -82 -22q-6 -1 -11 -1 q-30 0 -49 29z" />
<glyph unicode="s" horiz-adv-x="932" d="M70 157q0 62 10 79q91 -39 213 -39h18q133 3 214 17t133 50q65 46 65 120q0 57 -37 130q-48 96 -275 204q-148 70 -207.5 111t-90.5 85q-27 39 -27 75q0 58 72 109q161 92 334 92q117 0 240 -42l-64 -88q-6 2 -61 4q-16 1 -32 1q-41 0 -88 -4q-171 -13 -171 -81 q-24 -24 -7 -47t60 -48t103 -55t123 -67q154 -90 219.5 -188.5t70.5 -204.5v-14q0 -98 -67 -172q-72 -80 -225 -121q-106 -28 -256 -28q-66 0 -139 5q-31 0 -73.5 17t-46.5 23t-6 29t-2 48z" />
<glyph unicode="t" horiz-adv-x="1046" d="M-40 1096q5 73 72 84l308 6l40 660h6q129 0 152 -92q10 -26 10 -72t-3 -101t-8 -114t-6 -111v-14q0 -107 29 -134l492 86q4 -12 4 -30t-5 -36q-12 -43 -45 -50l-442 -126q-20 -72 -20 -384q0 -199 8 -495q3 -111 3 -115q0 -37 -21 -58t-46 -21h-2q-26 1 -49 24t-27 61 l-52 964l-344 -6q-28 0 -42 23q-12 20 -12 44v7z" />
<glyph unicode="u" horiz-adv-x="1236" d="M68 686v48q0 205 30 404q20 40 58 40t58 -40q0 -30 -3 -95t-6 -149t-3 -178t7 -183t21 -164t41 -119q30 -50 73 -49q40 0 90 43q122 110 211 291q25 51 34 80t21 105t25 165t23 165t14 96q33 50 65 50l21 -5q33 -17 33 -74q0 -12 -1 -25q-7 -54 -7 -142q0 -44 2 -97 q10 -306 41 -425q72 -191 247 -238q115 -31 147 -52.5t42 -59.5q11 -21 11 -36q0 -31 -45 -39q-16 -3 -36 -3q-44 0 -106 14q-180 40 -286 133q-72 63 -130 163q-258 -294 -426 -294h-10q-129 7 -196 215q-55 172 -60 455z" />
<glyph unicode="v" horiz-adv-x="1076" d="M40 1048q-1 11 -1 20q0 48 17 73q11 16 30 16q16 0 37 -11q47 -24 82 -102t65 -182t56 -216t54 -201t59 -140q22 -37 49 -37q11 0 22 6q182 262 293 754q29 128 51 234q23 42 57 42q10 0 22 -4q49 -16 72 -34t28 -41q1 -4 1 -10q0 -35 -30 -134q-36 -115 -72 -248 t-77 -261q-91 -285 -227 -494q-44 -71 -70 -78q-3 -1 -7 -1q-24 0 -65 31q-48 36 -92 102t-91 157t-92 196t-82 209t-61 197t-28 157z" />
<glyph unicode="w" horiz-adv-x="1530" d="M51 1004q-2 70 57 75h4q34 0 100 -45q10 -81 16 -177.5t12 -167.5t15 -134q21 -148 49 -193q78 155 107 253.5t50 174.5t47 159t48 100t45 8t46 -36t44 -60q26 -40 96.5 -183.5t109.5 -212.5q90 -159 179 -255q59 48 121 293q15 59 23 89t17 79t21 109t24 127t22 128 t18 109t10 72q22 34 46 36h8q18 0 28 -8q69 -56 69 -225q0 -125 -38 -313q-48 -240 -142 -473q-90 -223 -167 -286q-19 -15 -35 -15q-17 0 -31 16q-72 70 -123 158t-98 177t-97 172t-122 147q-34 -82 -65 -172t-64 -179q-84 -225 -141 -323q-22 -36 -52 -36q-16 0 -34 10 q-45 25 -70 84q-72 220 -96 376q-34 223 -56 514z" />
<glyph unicode="x" horiz-adv-x="1098" d="M58 1076q-5 8 -5 20q0 19 13 47q33 69 60 69q6 0 12 -4l372 -462q58 74 107 149t94 139q103 146 191 182q42 -68 42 -126q0 -34 -15 -65q-19 -39 -56 -77t-80 -84q-113 -121 -167 -254l432 -492q-40 -70 -65 -95q-12 -12 -26 -12t-29 13q-55 55 -153.5 168.5 t-139.5 160.5t-73 83t-42 48l-296 -444q-39 -11 -69 -11q-61 0 -84 44q-9 17 -5 36t12 37q16 36 30 50q78 122 290 414z" />
<glyph unicode="y" horiz-adv-x="1176" d="M40 1058q0 17 21 42q36 42 57 42q31 -25 104.5 -133.5t124.5 -183.5t103 -146t103 -130t95 -93t80 -34t58 46q15 92 82.5 351t77.5 298t41 59q21 14 41 14q9 0 18 -3q28 -9 45 -43q13 -25 13 -51q0 -9 -2 -18q-6 -35 -19 -97t-29 -146t-36 -179t-36 -179t-29 -146 t-15 -80q6 -42 17 -76q10 -31 10 -60v-5q-2 -70 -101 -145l-122 -842q-6 -46 -57 -46q-9 0 -20 2q-27 4 -50 17t-29 27q-28 58 -28 143q0 77 23 176q21 89 51 182t54 183q34 129 34 223q0 60 -14 105q-20 66 -78 138t-132 149t-154 157t-147 161q-155 187 -155 321z" />
<glyph unicode="z" horiz-adv-x="1220" d="M41 1059q0 12 4 26q5 17 9 39q8 8 201 35t279 40t166 23t155 20q17 2 32 2q51 0 80 -26q37 -34 38 -90v-3q0 -129 -146 -312q-41 -51 -94 -116t-113 -140t-114 -147q-124 -165 -156 -240q33 -10 91 -10q63 0 151 12q172 22 276 38t193 24q53 5 95 5q114 0 132 -37 q7 -12 7 -24q0 -39 -77 -68q-38 -14 -77 -19t-75 -10t-136 -20t-206 -30q-177 -25 -297.5 -38t-186.5 -14h-7q-61 0 -104 17q-58 23 -58 83q0 42 29 103l680 884l-720 -60q-51 18 -51 53z" />
<glyph unicode="{" horiz-adv-x="1122" d="M219 249q-27 131 17 261q22 76 127 181q41 41 82 74t65 55q10 30 -2 52t-26 45t-21 49t15 62q3 6 51.5 35t52.5 33q46 46 39 107t-35 124t-63 120t-45 97q-24 108 -5 213t78 179t154 103t223 -13q10 -22 -16 -41t-71 -40t-97 -48t-92 -69q-92 -97 -46 -250q4 -12 29 -59 t53 -101t53 -100t31 -58q80 -156 -78 -255q-40 -25 -59 -44t-10 -46t25 -60t34 -65t22 -54q-279 -199 -309 -403q-23 -157 110 -297q127 -134 275 -159q30 -5 68 -12q69 -13 161.5 -21t141.5 -25t46 -36q-6 -39 -159 -64q-306 -51 -529 103q-235 163 -290 427z" />
<glyph unicode="|" horiz-adv-x="294" d="M74 -100l18 1982q81 81 121 34q15 -18 19 -39t4 -15l-18 -1942q0 -65 -72 -50q-32 8 -72 30z" />
<glyph unicode="}" horiz-adv-x="932" d="M16 -221q-12 17 12 41t71 43t84 21t74 1t68 -2t60 8t96 54t124 110t92 150t23 182q-27 222 -306 421q4 22 19 47t28 48q31 55 7 78t-54 55t-50 74t-20 95t36 123q6 12 26 57t44 97q60 130 68 154q45 150 -52 241q-42 39 -98 62t-103 40t-76 32t-17 39q128 42 230 16 t170 -96t94 -172t2 -210q-10 -40 -46 -97t-66 -120q-75 -156 2 -233q2 -4 12 -16t20 -26t19 -27t21 -33t11 -46t-10 -48t-17 -44t2 -52q136 -125 183 -194.5t63 -117.5q44 -130 17 -261q-55 -264 -290 -427q-159 -110 -333 -113q-117 -2 -172.5 13.5t-67.5 32.5z" />
<glyph unicode="~" horiz-adv-x="1006" d="M98 766q37 73 92.5 134.5t97.5 91.5t78 20q63 -32 118.5 -89t82.5 -83t49 -34q91 -18 165 47q59 52 101 155q52 28 74 5t17 -70t-34 -106t-81 -104q-125 -108 -284 -47q-34 12 -62 40t-54 57q-64 71 -112 77q-21 -9 -66.5 -61.5t-72.5 -78.5t-50 -34q-52 -18 -59 80z" />
<glyph unicode="&#xa1;" horiz-adv-x="498" d="M133 1822q-7 34 37 56t92 10t73 -44t20 -72t-61 -68q-24 -12 -61 6t-65 48t-35 64zM212 76v1192q0 22 21 40t45 26t45 1t21 -33v-1260q0 -24 -21 -34t-45 -6t-45 22t-21 52z" />
<glyph unicode="&#xa2;" horiz-adv-x="1176" d="M114 568q-47 341 65 545q91 165 267 207q-19 223 45 294q27 30 59 22t58 -48q63 -97 40 -264q88 -20 139 -66t33 -102q-46 -12 -87 -3t-81 21l20 -754q60 20 117 60t114 76t114 55t115 -5q40 -121 -114 -209q-126 -72 -342 -105q4 -253 -47 -282q-21 -12 -44 16t-41 73 q-43 108 -22 179q-117 -4 -165.5 12t-88.5 45t-72 66q-70 81 -82 167zM211 871q-53 -171 24 -306q82 -144 277 -159q-22 204 -45 387t-25 373q-173 -108 -231 -295z" />
<glyph unicode="&#xa3;" horiz-adv-x="1530" d="M-26 1016q17 40 256 74q6 64 11 126t10 116t8 95t5 65q53 249 229 320q154 62 358 -19q188 -75 333 -237q62 -70 56 -107t-96 -37q-10 0 -48 34t-93 81t-122 94t-136 73t-133 19t-114 -70q-108 -136 -108 -537q94 13 148 28q103 27 190 36q20 -10 43 -36t36 -57 q32 -77 -41 -103q-80 4 -181 -16t-205 -38q-6 -107 -20 -213.5t-24 -186.5t-19 -145q-20 -148 -17 -151q233 138 463 156q320 25 579 -180q58 -48 75 -89t1 -63t-62 -18t-120 54t-174 87t-211 39q-246 4 -461 -188q-170 -18 -224 111q-24 57 -24 131t7 120t14 107t17 137 q25 187 32 272q-125 -9 -196 40q-9 5 -24.5 38.5t-17.5 37.5z" />
<glyph unicode="&#xa8;" horiz-adv-x="724" d="M59 1284q-11 32 0 59t39 46t61 22q81 7 115 -71q16 -36 6 -67t-36 -50t-60 -21t-74 24t-51 58zM367 1288q-11 32 0 59t39 45t61 20q79 5 113 -70q16 -36 6 -67t-35 -49t-60 -20t-74 24t-50 58z" />
<glyph unicode="&#xad;" horiz-adv-x="1180" d="M113 853q-3 33 17 61t50 49t67 26t143 14t223 18t223 17t164 14q20 -10 43 -36t36 -57q32 -77 -41 -103l-874 -62q-48 26 -51 59z" />
<glyph unicode="&#xaf;" horiz-adv-x="992" d="M78 1379q16 25 42 42t42 19q87 12 308 12t298 8q58 -29 90 -83q40 -67 -30 -91l-706 -16q-84 46 -44 109z" />
<glyph unicode="&#xb4;" horiz-adv-x="570" d="M52 1352l316 248q44 -16 79 -43t37 -51l-322 -260q-56 0 -97 71q-11 19 -13 35z" />
<glyph unicode="&#xb8;" horiz-adv-x="936" d="M124 -619q0 49 10 59q398 -22 526 33q58 25 58 62t-36 78t-99 82t-130 77q-131 70 -225 98l-18 220l136 20l10 -140q336 -122 466 -296q60 -80 59 -154t-70 -129q-155 -123 -567 -97q-10 0 -28 4l-36 8t-31 9t-19 11t-6 55z" />
<glyph unicode="&#xbf;" horiz-adv-x="1392" d="M162 576q25 170 178 279q100 71 275 124q63 19 105 32t46 25v72l-8 266q-2 18 10 44t34 38q56 30 104 -70q4 -60 9 -128t9 -137q8 -138 8 -263q-304 11 -485 -133q-79 -63 -118 -142t-41 -154t33 -137t104 -92q160 -70 401 64q36 18 78 62t85 86t87 66t82 -2 q16 -84 -24 -161t-114 -137t-173 -99t-202 -50t-200 12t-168 87q-160 144 -115 448zM674 1790q10 36 37 57t63 23t70 -24q46 -30 39 -76t-41 -78t-81 -35t-81 55q-16 42 -6 78z" />
<glyph unicode="&#xc0;" horiz-adv-x="1450" d="M107 96q9 114 64 348q132 563 423 1366q11 42 77 42q25 0 48 -11t29 -31q87 -314 141 -472q122 -352 247 -522q87 -29 96 -57q4 -13 -3 -28t-14 -33q-19 -49 -1 -94l194 -462l5 -26q12 -64 -7 -118q-10 -28 -38 -34l-76 70l-262 606l-628 -36q-11 0 -65.5 -181 t-60.5 -207t-12 -56t-11 -56t-13 -54t-29 -48t-81 -2q-32 -18 -23 96zM478 816q-24 2 5 -9t93 -19q177 -22 328 28q17 114 -142 444q-75 156 -90 196q-131 -308 -181 -520q-19 -80 -13 -120zM524 2220q2 24 37 51t79 43l316 -248q-4 -33 -29 -59q-44 -47 -81 -47z" />
<glyph unicode="&#xc1;" horiz-adv-x="1450" d="M107 96q9 114 64 348q132 563 423 1366q11 42 77 42q25 0 48 -11t29 -31q87 -314 141 -472q122 -352 247 -522q87 -29 96 -57q4 -13 -3 -28t-14 -33q-19 -49 -1 -94l194 -462l5 -26q12 -64 -7 -118q-10 -28 -38 -34l-76 70l-262 606l-628 -36q-11 0 -65.5 -181 t-60.5 -207t-12 -56t-11 -56t-13 -54t-29 -48t-81 -2q-32 -18 -23 96zM468 2010l316 248q44 -16 79 -43t37 -51l-322 -260q-56 0 -97 71q-11 19 -13 35zM478 816q-24 2 5 -9t93 -19q177 -22 328 28q17 114 -142 444q-75 156 -90 196q-131 -308 -181 -520q-19 -80 -13 -120z " />
<glyph unicode="&#xc2;" horiz-adv-x="1450" d="M107 96q9 114 64 348q132 563 423 1366q11 42 77 42q25 0 48 -11t29 -31q87 -314 141 -472q122 -352 247 -522q87 -29 96 -57q4 -13 -3 -28t-14 -33q-19 -49 -1 -94l194 -462l5 -26q12 -64 -7 -118q-10 -28 -38 -34l-76 70l-262 606l-628 -36q-11 0 -65.5 -181 t-60.5 -207t-12 -56t-11 -56t-13 -54t-29 -48t-81 -2q-32 -18 -23 96zM400 2020l264 400q37 70 109 23q61 -40 87 -103l170 -316q6 -40 -10 -57t-40 -19t-48 8t-32 22l-172 252l-202 -282q8 -4 -8 -12t-40 -5t-47 22t-31 67zM478 816q-24 2 5 -9t93 -19q177 -22 328 28 q17 114 -142 444q-75 156 -90 196q-131 -308 -181 -520q-19 -80 -13 -120z" />
<glyph unicode="&#xc3;" horiz-adv-x="1450" d="M107 96q9 114 64 348q132 563 423 1366q11 42 77 42q25 0 48 -11t29 -31q87 -314 141 -472q122 -352 247 -522q87 -29 96 -57q4 -13 -3 -28t-14 -33q-19 -49 -1 -94l194 -462l5 -26q12 -64 -7 -118q-10 -28 -38 -34l-76 70l-262 606l-628 -36q-11 0 -65.5 -181 t-60.5 -207t-12 -56t-11 -56t-13 -54t-29 -48t-81 -2q-32 -18 -23 96zM230 2034q37 73 92.5 134.5t97.5 91.5t78 20q63 -32 118.5 -89t82.5 -83t49 -34q91 -18 165 47q59 52 101 155q52 28 74 5t17 -70t-34 -106t-81 -104q-125 -108 -284 -47q-34 12 -62 40t-54 57 q-64 71 -112 77q-21 -9 -66.5 -61.5t-72.5 -78.5t-50 -34q-52 -18 -59 80zM478 816q-24 2 5 -9t93 -19q177 -22 328 28q17 114 -142 444q-75 156 -90 196q-131 -308 -181 -520q-19 -80 -13 -120z" />
<glyph unicode="&#xc4;" horiz-adv-x="1450" d="M107 96q9 114 64 348q132 563 423 1366q11 42 77 42q25 0 48 -11t29 -31q87 -314 141 -472q122 -352 247 -522q87 -29 96 -57q4 -13 -3 -28t-14 -33q-19 -49 -1 -94l194 -462l5 -26q12 -64 -7 -118q-10 -28 -38 -34l-76 70l-262 606l-628 -36q-11 0 -65.5 -181 t-60.5 -207t-12 -56t-11 -56t-13 -54t-29 -48t-81 -2q-32 -18 -23 96zM405 1990q-11 32 0 59t39 46t61 22q81 7 115 -71q16 -36 6 -67t-36 -50t-60 -21t-74 24t-51 58zM478 816q-24 2 5 -9t93 -19q177 -22 328 28q17 114 -142 444q-75 156 -90 196q-131 -308 -181 -520 q-19 -80 -13 -120zM713 1994q-11 32 0 59t39 45t61 20q79 5 113 -70q16 -36 6 -67t-35 -49t-60 -20t-74 24t-50 58z" />
<glyph unicode="&#xc5;" horiz-adv-x="1450" d="M107 96q9 114 64 348q132 563 423 1366q11 42 77 42q25 0 48 -11t29 -31q87 -314 141 -472q122 -352 247 -522q87 -29 96 -57q4 -13 -3 -28t-14 -33q-19 -49 -1 -94l194 -462l5 -26q12 -64 -7 -118q-10 -28 -38 -34l-76 70l-262 606l-628 -36q-11 0 -65.5 -181 t-60.5 -207t-12 -56t-11 -56t-13 -54t-29 -48t-81 -2q-32 -18 -23 96zM326 2164q22 127 148 172q115 41 249 6q135 -35 187 -116q59 -91 -32 -190q-106 -112 -300 -98q-56 4 -104 20q-86 44 -123 91t-25 115zM440 2151q-2 -39 21 -67t58 -45q85 -41 158 -7t108 68t35 63 t-27 52t-69 36t-91 15t-91 -10t-71 -39t-31 -66zM478 816q-24 2 5 -9t93 -19q177 -22 328 28q17 114 -142 444q-75 156 -90 196q-131 -308 -181 -520q-19 -80 -13 -120z" />
<glyph unicode="&#xc6;" horiz-adv-x="2140" d="M74 57q30 115 129 346q227 529 677 1347q105 44 646 96q62 6 90 8t89 9t130 4q179 -8 219 -91q12 -26 -4 -47t-34 -31q-20 2 -70 2h-185.5t-90.5 -1t-54 -3t-103 -7t-131 -14t-129 -22q-139 -31 -139 -73v-470h706v-78l-706 -118l-40 -40q-11 -11 -17.5 -205.5 t-6.5 -246.5t2 -86q4 -72 67 -107t157 -47t207 -7t220 15t196 20t133 8q42 -22 42 -59t-42 -59q-24 -4 -73 -10t-110 -14t-130 -16t-130 -16q-141 -19 -184 -22.5t-114 -1.5t-147 11q-182 22 -248 69l6 458l-440 -6q-5 0 -85.5 -156t-91.5 -179t-20 -49t-21 -55t-22 -55 q-30 -77 -59 -98.5t-85 -1.5q-34 -16 -4 99zM575 755q19 -9 65 -20q122 -29 266 -11q0 424 -4 510t-5 110t-3 33t-2 17q-314 -518 -314 -632q-22 2 -3 -7z" />
<glyph unicode="&#xc7;" horiz-adv-x="1372" d="M58 824q16 228 118 509q178 490 464 536q80 13 174 -21q70 -27 126 -154q56 -126 40 -214q-18 -101 -128 -64q7 248 -75 306q-69 49 -188 -43q-102 -79 -204 -233q-95 -144 -121 -264q-58 -189 -70 -428q-23 -458 197 -577q83 -45 200 -24t190 55t138 77t130 91t147 94 q57 32 100 -16q44 -49 17 -100.5t-96 -106.5t-161 -104t-198 -88t-207 -56q-229 -38 -319 41q-187 160 -245 348q-50 163 -29 436zM420 -659q0 49 10 59q398 -22 526 33q58 25 58 62t-36 78t-99 82t-130 77q-131 70 -225 98l-18 220l136 20l10 -140q336 -122 466 -296 q60 -80 59 -154t-70 -129q-155 -123 -567 -97q-10 0 -28 4l-36 8t-31 9t-19 11t-6 55z" />
<glyph unicode="&#xc8;" horiz-adv-x="1352" d="M79 1647q2 56 79 107q88 15 247 32.5t225 25.5q111 13 163.5 17.5t113.5 11.5t130 4q179 -8 219 -91q12 -26 -4 -47t-34 -31q-20 2 -70 2h-185.5t-103.5 -2t-91 -7t-143 -15q-191 -25 -271 -56q-10 -4 -24 -19t-14 -21v-470h706v-78l-706 -118l-40 -40 q-11 -11 -17.5 -205.5t-6.5 -246.5t2 -86q10 -180 431 -161q172 8 338.5 26.5t210.5 16.5q42 -22 42 -59t-42 -59q-24 -4 -73 -10t-110 -14t-130 -16t-130 -16q-141 -19 -184 -22.5t-114 -1.5t-147 11q-182 22 -248 69l22 1440q-42 99 -41 129zM460 2220q2 24 37 51t79 43 l316 -248q-4 -33 -29 -59q-44 -47 -81 -47z" />
<glyph unicode="&#xc9;" horiz-adv-x="1352" d="M79 1647q2 56 79 107q88 15 247 32.5t225 25.5q111 13 163.5 17.5t113.5 11.5t130 4q179 -8 219 -91q12 -26 -4 -47t-34 -31q-20 2 -70 2h-185.5t-103.5 -2t-91 -7t-143 -15q-191 -25 -271 -56q-10 -4 -24 -19t-14 -21v-470h706v-78l-706 -118l-40 -40 q-11 -11 -17.5 -205.5t-6.5 -246.5t2 -86q10 -180 431 -161q172 8 338.5 26.5t210.5 16.5q42 -22 42 -59t-42 -59q-24 -4 -73 -10t-110 -14t-130 -16t-130 -16q-141 -19 -184 -22.5t-114 -1.5t-147 11q-182 22 -248 69l22 1440q-42 99 -41 129zM460 2040l316 248 q44 -16 79 -43t37 -51l-322 -260q-56 0 -97 71q-11 19 -13 35z" />
<glyph unicode="&#xca;" horiz-adv-x="1352" d="M79 1647q2 56 79 107q88 15 247 32.5t225 25.5q111 13 163.5 17.5t113.5 11.5t130 4q179 -8 219 -91q12 -26 -4 -47t-34 -31q-20 2 -70 2h-185.5t-103.5 -2t-91 -7t-143 -15q-191 -25 -271 -56q-10 -4 -24 -19t-14 -21v-470h706v-78l-706 -118l-40 -40 q-11 -11 -17.5 -205.5t-6.5 -246.5t2 -86q10 -180 431 -161q172 8 338.5 26.5t210.5 16.5q42 -22 42 -59t-42 -59q-24 -4 -73 -10t-110 -14t-130 -16t-130 -16q-141 -19 -184 -22.5t-114 -1.5t-147 11q-182 22 -248 69l22 1440q-42 99 -41 129zM352 2020l264 400 q37 70 109 23q61 -40 87 -103l170 -316q6 -40 -10 -57t-40 -19t-48 8t-32 22l-172 252l-202 -282q8 -4 -8 -12t-40 -5t-47 22t-31 67z" />
<glyph unicode="&#xcb;" horiz-adv-x="1352" d="M79 1647q2 56 79 107q88 15 247 32.5t225 25.5q111 13 163.5 17.5t113.5 11.5t130 4q179 -8 219 -91q12 -26 -4 -47t-34 -31q-20 2 -70 2h-185.5t-103.5 -2t-91 -7t-143 -15q-191 -25 -271 -56q-10 -4 -24 -19t-14 -21v-470h706v-78l-706 -118l-40 -40 q-11 -11 -17.5 -205.5t-6.5 -246.5t2 -86q10 -180 431 -161q172 8 338.5 26.5t210.5 16.5q42 -22 42 -59t-42 -59q-24 -4 -73 -10t-110 -14t-130 -16t-130 -16q-141 -19 -184 -22.5t-114 -1.5t-147 11q-182 22 -248 69l22 1440q-42 99 -41 129zM457 1972q-11 32 0 59t39 46 t61 22q81 7 115 -71q16 -36 6 -67t-36 -50t-60 -21t-74 24t-51 58zM765 1976q-11 32 0 59t39 45t61 20q79 5 113 -70q16 -36 6 -67t-35 -49t-60 -20t-74 24t-50 58z" />
<glyph unicode="&#xcc;" horiz-adv-x="314" d="M-56 2220q2 24 37 51t79 43l316 -248q-4 -33 -29 -59q-44 -47 -81 -47zM74 1794q0 48 24 66t54 14t54 -26t24 -54l4 -1794q-17 -41 -64 -39t-66 67z" />
<glyph unicode="&#xcd;" horiz-adv-x="314" d="M-56 2040l316 248q44 -16 79 -43t37 -51l-322 -260q-56 0 -97 71q-11 19 -13 35zM74 1794q0 48 24 66t54 14t54 -26t24 -54l4 -1794q-17 -41 -64 -39t-66 67z" />
<glyph unicode="&#xce;" horiz-adv-x="314" d="M-164 2020l264 400q37 70 109 23q61 -40 87 -103l170 -316q6 -40 -10 -57t-40 -19t-48 8t-32 22l-172 252l-202 -282q8 -4 -8 -12t-40 -5t-47 22t-31 67zM74 1794q0 48 24 66t54 14t54 -26t24 -54l4 -1794q-17 -41 -64 -39t-66 67z" />
<glyph unicode="&#xcf;" horiz-adv-x="314" d="M-85 2024q-11 32 0 59t39 46t61 22q81 7 115 -71q16 -36 6 -67t-36 -50t-60 -21t-74 24t-51 58zM74 1794q0 48 24 66t54 14t54 -26t24 -54l4 -1794q-17 -41 -64 -39t-66 67zM223 2028q-11 32 0 59t39 45t61 20q79 5 113 -70q16 -36 6 -67t-35 -49t-60 -20t-74 24t-50 58z " />
<glyph unicode="&#xd0;" horiz-adv-x="1550" d="M-139 795q-3 33 17 61t50 49t56 24q28 3 212 19v550q-33 13 -82.5 62.5t-55.5 59.5q-24 50 17 97t125 81t202 49t248 -2t262 -71t245 -156q250 -225 313 -642q46 -303 -147 -582q-87 -126 -212 -222t-268 -146q-314 -110 -589 22q-18 6 -38 40t-20 40v628l-284 -20 q-48 26 -51 59zM368 604l4 -354q14 -56 82 -78t162 -11t203 54t206 118t170 184t97 250q54 317 -176 693q-77 130 -258 214q-187 87 -321 36q-69 -26 -115 -96t-50 -196l-4 -310v-144l380 30q20 -10 43 -36t36 -57q32 -77 -41 -103l-418 -30v-164z" />
<glyph unicode="&#xd1;" horiz-adv-x="1490" d="M62 1449q-6 205 25 287t67 85t80 -43t90 -112t89 -137t79 -119q65 -74 275.5 -377t279.5 -398q156 -215 189 -215l-18 1398q0 36 67 43q48 5 89 -3q2 -30 5 -122t8 -216t9 -264t8 -263t6 -216t4 -140t7 -127t3 -164q-5 -205 -50 -318q-16 -24 -40 -40l-1076 1462 q-9 -18 2.5 -216t18.5 -344t8 -292t-6 -277t-27 -219t-58 -121t-98 19q2 36 0 118t-4 192t-6 239t-8 259t-8 254t-6 223t-4 164zM250 2034q37 73 92.5 134.5t97.5 91.5t78 20q63 -32 118.5 -89t82.5 -83t49 -34q91 -18 165 47q59 52 101 155q52 28 74 5t17 -70t-34 -106 t-81 -104q-125 -108 -284 -47q-34 12 -62 40t-54 57q-64 71 -112 77q-21 -9 -66.5 -61.5t-72.5 -78.5t-50 -34q-52 -18 -59 80z" />
<glyph unicode="&#xd2;" horiz-adv-x="1372" d="M38 849q-4 177 41 351t125 315t186 233t226 104q208 -39 352 -195q100 -108 181 -298q31 -73 50 -133t35 -94q96 -414 -50 -713q-66 -135 -171 -221t-226 -114t-250 6t-251 145t-183 274t-65 340zM206 868q5 -382 249 -548q96 -66 207 -82q54 -8 104 4q297 71 348 497 q16 133 2 287q-116 316 -245 470q-215 257 -412 81q-156 -140 -223 -430q-32 -139 -30 -279zM470 2220q2 24 37 51t79 43l316 -248q-4 -33 -29 -59q-44 -47 -81 -47z" />
<glyph unicode="&#xd3;" horiz-adv-x="1372" d="M38 849q-4 177 41 351t125 315t186 233t226 104q208 -39 352 -195q100 -108 181 -298q31 -73 50 -133t35 -94q96 -414 -50 -713q-66 -135 -171 -221t-226 -114t-250 6t-251 145t-183 274t-65 340zM206 868q5 -382 249 -548q96 -66 207 -82q54 -8 104 4q297 71 348 497 q16 133 2 287q-116 316 -245 470q-215 257 -412 81q-156 -140 -223 -430q-32 -139 -30 -279zM470 2040l316 248q44 -16 79 -43t37 -51l-322 -260q-56 0 -97 71q-11 19 -13 35z" />
<glyph unicode="&#xd4;" horiz-adv-x="1372" d="M38 849q-4 177 41 351t125 315t186 233t226 104q208 -39 352 -195q100 -108 181 -298q31 -73 50 -133t35 -94q96 -414 -50 -713q-66 -135 -171 -221t-226 -114t-250 6t-251 145t-183 274t-65 340zM206 868q5 -382 249 -548q96 -66 207 -82q54 -8 104 4q297 71 348 497 q16 133 2 287q-116 316 -245 470q-215 257 -412 81q-156 -140 -223 -430q-32 -139 -30 -279zM362 2020l264 400q37 70 109 23q61 -40 87 -103l170 -316q6 -40 -10 -57t-40 -19t-48 8t-32 22l-172 252l-202 -282q8 -4 -8 -12t-40 -5t-47 22t-31 67z" />
<glyph unicode="&#xd5;" horiz-adv-x="1372" d="M38 849q-4 177 41 351t125 315t186 233t226 104q208 -39 352 -195q100 -108 181 -298q31 -73 50 -133t35 -94q96 -414 -50 -713q-66 -135 -171 -221t-226 -114t-250 6t-251 145t-183 274t-65 340zM190 2034q37 73 92.5 134.5t97.5 91.5t78 20q63 -32 118.5 -89t82.5 -83 t49 -34q91 -18 165 47q59 52 101 155q52 28 74 5t17 -70t-34 -106t-81 -104q-125 -108 -284 -47q-34 12 -62 40t-54 57q-64 71 -112 77q-21 -9 -66.5 -61.5t-72.5 -78.5t-50 -34q-52 -18 -59 80zM206 868q5 -382 249 -548q96 -66 207 -82q54 -8 104 4q297 71 348 497 q16 133 2 287q-116 316 -245 470q-215 257 -412 81q-156 -140 -223 -430q-32 -139 -30 -279z" />
<glyph unicode="&#xd6;" horiz-adv-x="1372" d="M38 849q-4 177 41 351t125 315t186 233t226 104q208 -39 352 -195q100 -108 181 -298q31 -73 50 -133t35 -94q96 -414 -50 -713q-66 -135 -171 -221t-226 -114t-250 6t-251 145t-183 274t-65 340zM206 868q5 -382 249 -548q96 -66 207 -82q54 -8 104 4q297 71 348 497 q16 133 2 287q-116 316 -245 470q-215 257 -412 81q-156 -140 -223 -430q-32 -139 -30 -279zM401 1994q-11 32 0 59t39 46t61 22q81 7 115 -71q16 -36 6 -67t-36 -50t-60 -21t-74 24t-51 58zM709 1998q-11 32 0 59t39 45t61 20q79 5 113 -70q16 -36 6 -67t-35 -49t-60 -20 t-74 24t-50 58z" />
<glyph unicode="&#xd8;" horiz-adv-x="1372" d="M38 849q-4 177 41 351t125 315t186 233t226 104q208 -39 352 -195q100 -108 181 -298q31 -73 50 -133t35 -94q96 -414 -50 -713q-66 -135 -171 -221t-226 -114t-250 6t-251 145t-183 274t-65 340zM206 868q5 -382 249 -548q96 -66 207 -82q54 -8 104 4q297 71 348 497 q16 133 2 287q-116 316 -245 470q-215 257 -412 81q-156 -140 -223 -430q-32 -139 -30 -279zM350 40q-14 28 98 407q209 709 424 1405q71 11 112 -23q37 -31 16 -81l-512 -1736q-13 -39 -36.5 -49.5t-47.5 3.5t-54 74z" />
<glyph unicode="&#xd9;" horiz-adv-x="1314" d="M60 1614q10 112 39 170q38 76 95 15q14 -15 18 -21q6 -96 6 -230t7 -286t26 -313t63 -309q100 -335 314 -484q328 -53 404 418q39 241 23 592q-7 154 -15 287t-13 235t3 143t32 45t51 -8t50 -32t27 -36q46 -382 35 -957q-3 -153 -9 -255q-48 -207 -86 -290.5t-84 -139.5 t-114 -91q-147 -76 -382 -27q-164 51 -294 359q-113 267 -166 633q-51 350 -30 582zM440 2220q2 24 37 51t79 43l316 -248q-4 -33 -29 -59q-44 -47 -81 -47z" />
<glyph unicode="&#xda;" horiz-adv-x="1314" d="M60 1614q10 112 39 170q38 76 95 15q14 -15 18 -21q6 -96 6 -230t7 -286t26 -313t63 -309q100 -335 314 -484q328 -53 404 418q39 241 23 592q-7 154 -15 287t-13 235t3 143t32 45t51 -8t50 -32t27 -36q46 -382 35 -957q-3 -153 -9 -255q-48 -207 -86 -290.5t-84 -139.5 t-114 -91q-147 -76 -382 -27q-164 51 -294 359q-113 267 -166 633q-51 350 -30 582zM440 2040l316 248q44 -16 79 -43t37 -51l-322 -260q-56 0 -97 71q-11 19 -13 35z" />
<glyph unicode="&#xdb;" horiz-adv-x="1314" d="M60 1614q10 112 39 170q38 76 95 15q14 -15 18 -21q6 -96 6 -230t7 -286t26 -313t63 -309q100 -335 314 -484q328 -53 404 418q39 241 23 592q-7 154 -15 287t-13 235t3 143t32 45t51 -8t50 -32t27 -36q46 -382 35 -957q-3 -153 -9 -255q-48 -207 -86 -290.5t-84 -139.5 t-114 -91q-147 -76 -382 -27q-164 51 -294 359q-113 267 -166 633q-51 350 -30 582zM332 2020l264 400q37 70 109 23q61 -40 87 -103l170 -316q6 -40 -10 -57t-40 -19t-48 8t-32 22l-172 252l-202 -282q8 -4 -8 -12t-40 -5t-47 22t-31 67z" />
<glyph unicode="&#xdc;" horiz-adv-x="1314" d="M60 1614q10 112 39 170q38 76 95 15q14 -15 18 -21q6 -96 6 -230t7 -286t26 -313t63 -309q100 -335 314 -484q328 -53 404 418q39 241 23 592q-7 154 -15 287t-13 235t3 143t32 45t51 -8t50 -32t27 -36q46 -382 35 -957q-3 -153 -9 -255q-48 -207 -86 -290.5t-84 -139.5 t-114 -91q-147 -76 -382 -27q-164 51 -294 359q-113 267 -166 633q-51 350 -30 582zM385 2004q-11 32 0 59t39 46t61 22q81 7 115 -71q16 -36 6 -67t-36 -50t-60 -21t-74 24t-51 58zM693 2008q-11 32 0 59t39 45t61 20q79 5 113 -70q16 -36 6 -67t-35 -49t-60 -20t-74 24 t-50 58z" />
<glyph unicode="&#xdd;" horiz-adv-x="1294" d="M42 1622q-20 46 10 86q100 25 336 -257q66 -79 130 -159t125 -154t112 -123t89 -67t60 14q56 83 87 303q13 91 24 185t30 178q44 193 143 258q50 -24 66 -58t6 -84l-414 -1732q-4 -14 -20 -34t-39 -31q-59 -28 -83 31q-14 74 2 144t42 156t52 199t32 273 q-91 91 -164.5 169.5t-139.5 148.5t-125 133q-136 145 -173 189q-12 20 -52 58t-78 83t-58 91zM430 2040l316 248q44 -16 79 -43t37 -51l-322 -260q-56 0 -97 71q-11 19 -13 35z" />
<glyph unicode="&#xde;" horiz-adv-x="966" d="M60 471q2 356 24 1103q6 34 31 45t54 5t53 -25t26 -45q-58 -478 -8 -540q94 124 193 156t187 -3t161 -122t116 -199t51 -236t-33 -232t-137 -186t-260 -100q-94 -12 -157 -19t-125 13v-334q-11 -69 -78 -61q-26 3 -46 15t-20 24q-33 394 -32 741zM234 542 q-49 -218 56 -296q46 -34 112 -34t136 27q157 61 252 195q68 94 19 266q-45 159 -157 254q-120 102 -227 21q-129 -97 -191 -433z" />
<glyph unicode="&#xdf;" horiz-adv-x="1426" d="M120 -204q2 46 2 116l2 377l-2 470v218l-2 301q0 177 115 363q83 134 215 194q68 31 158 33t146 -23t81 -67t26 -95t-13 -110t-37 -111t-45 -98t-37 -72t-11 -32q327 44 502 -122q76 -72 107 -167t26 -189t-40 -193t-94 -191t-138 -171t-172 -135q-201 -121 -407 -98 l54 186q294 19 476 206q165 169 178 382q6 100 -32 186t-120 136t-210 54t-302 -62l-6 230q38 38 63 59t42 43q34 44 57.5 131t-1.5 121t-73 39t-109 -18t-116 -66q-131 -102 -127 -233l16 -1606q8 -24 -19 -45t-62 -25t-64 17t-27 67z" />
<glyph unicode="&#xe0;" d="M60 487q0 105 23 209t67 200t106 165q138 153 312 123q218 -41 293 -390q21 -98 38 -196t34 -187t45 -153t71 -94t113 -8q145 149 198 127q22 -9 19 -45t-26 -80t-63 -86t-91 -64q-121 -52 -239 48q-27 18 -58.5 83t-49.5 103t-38 66q-46 64 -90 40q-40 -66 -81 -128 t-90 -106q-108 -97 -259 -58q-153 41 -209 238q-25 88 -25 193zM197 632q-38 -214 27 -336q96 -147 220 -71q104 64 184 237q75 164 58 262q-10 48 -16 86t-13 68q-15 63 -41 106q-148 103 -273 -24q-107 -109 -146 -328zM290 1542q2 24 37 51t79 43l316 -248 q-4 -33 -29 -59q-44 -47 -81 -47z" />
<glyph unicode="&#xe1;" d="M60 487q0 105 23 209t67 200t106 165q138 153 312 123q218 -41 293 -390q21 -98 38 -196t34 -187t45 -153t71 -94t113 -8q145 149 198 127q22 -9 19 -45t-26 -80t-63 -86t-91 -64q-121 -52 -239 48q-27 18 -58.5 83t-49.5 103t-38 66q-46 64 -90 40q-40 -66 -81 -128 t-90 -106q-108 -97 -259 -58q-153 41 -209 238q-25 88 -25 193zM197 632q-38 -214 27 -336q96 -147 220 -71q104 64 184 237q75 164 58 262q-10 48 -16 86t-13 68q-15 63 -41 106q-148 103 -273 -24q-107 -109 -146 -328zM356 1406l316 248q44 -16 79 -43t37 -51l-322 -260 q-56 0 -97 71q-11 19 -13 35z" />
<glyph unicode="&#xe2;" d="M60 487q0 105 23 209t67 200t106 165q138 153 312 123q218 -41 293 -390q21 -98 38 -196t34 -187t45 -153t71 -94t113 -8q145 149 198 127q22 -9 19 -45t-26 -80t-63 -86t-91 -64q-121 -52 -239 48q-27 18 -58.5 83t-49.5 103t-38 66q-46 64 -90 40q-40 -66 -81 -128 t-90 -106q-108 -97 -259 -58q-153 41 -209 238q-25 88 -25 193zM192 1354l264 400q37 70 109 23q61 -40 87 -103l170 -316q6 -40 -10 -57t-40 -19t-48 8t-32 22l-172 252l-202 -282q8 -4 -8 -12t-40 -5t-47 22t-31 67zM197 632q-38 -214 27 -336q96 -147 220 -71 q104 64 184 237q75 164 58 262q-10 48 -16 86t-13 68q-15 63 -41 106q-148 103 -273 -24q-107 -109 -146 -328z" />
<glyph unicode="&#xe3;" d="M60 487q0 105 23 209t67 200t106 165q138 153 312 123q218 -41 293 -390q21 -98 38 -196t34 -187t45 -153t71 -94t113 -8q145 149 198 127q22 -9 19 -45t-26 -80t-63 -86t-91 -64q-121 -52 -239 48q-27 18 -58.5 83t-49.5 103t-38 66q-46 64 -90 40q-40 -66 -81 -128 t-90 -106q-108 -97 -259 -58q-153 41 -209 238q-25 88 -25 193zM132 1346q37 73 92.5 134.5t97.5 91.5t78 20q63 -32 118.5 -89t82.5 -83t49 -34q91 -18 165 47q59 52 101 155q52 28 74 5t17 -70t-34 -106t-81 -104q-125 -108 -284 -47q-34 12 -62 40t-54 57q-64 71 -112 77 q-21 -9 -66.5 -61.5t-72.5 -78.5t-50 -34q-52 -18 -59 80zM197 632q-38 -214 27 -336q96 -147 220 -71q104 64 184 237q75 164 58 262q-10 48 -16 86t-13 68q-15 63 -41 106q-148 103 -273 -24q-107 -109 -146 -328z" />
<glyph unicode="&#xe4;" d="M60 487q0 105 23 209t67 200t106 165q138 153 312 123q218 -41 293 -390q21 -98 38 -196t34 -187t45 -153t71 -94t113 -8q145 149 198 127q22 -9 19 -45t-26 -80t-63 -86t-91 -64q-121 -52 -239 48q-27 18 -58.5 83t-49.5 103t-38 66q-46 64 -90 40q-40 -66 -81 -128 t-90 -106q-108 -97 -259 -58q-153 41 -209 238q-25 88 -25 193zM197 632q-38 -214 27 -336q96 -147 220 -71q104 64 184 237q75 164 58 262q-10 48 -16 86t-13 68q-15 63 -41 106q-148 103 -273 -24q-107 -109 -146 -328zM233 1350q-11 32 0 59t39 46t61 22q81 7 115 -71 q16 -36 6 -67t-36 -50t-60 -21t-74 24t-51 58zM541 1354q-11 32 0 59t39 45t61 20q79 5 113 -70q16 -36 6 -67t-35 -49t-60 -20t-74 24t-50 58z" />
<glyph unicode="&#xe5;" d="M60 487q0 105 23 209t67 200t106 165q138 153 312 123q218 -41 293 -390q21 -98 38 -196t34 -187t45 -153t71 -94t113 -8q145 149 198 127q22 -9 19 -45t-26 -80t-63 -86t-91 -64q-121 -52 -239 48q-27 18 -58.5 83t-49.5 103t-38 66q-46 64 -90 40q-40 -66 -81 -128 t-90 -106q-108 -97 -259 -58q-153 41 -209 238q-25 88 -25 193zM197 632q-38 -214 27 -336q96 -147 220 -71q104 64 184 237q75 164 58 262q-10 48 -16 86t-13 68q-15 63 -41 106q-148 103 -273 -24q-107 -109 -146 -328zM228 1476q22 127 148 172q115 41 249 6 q135 -35 187 -116q59 -91 -32 -190q-106 -112 -300 -98q-56 4 -104 20q-86 44 -123 91t-25 115zM342 1463q-2 -39 21 -67t58 -45q85 -41 158 -7t108 68t35 63t-27 52t-69 36t-91 15t-91 -10t-71 -39t-31 -66z" />
<glyph unicode="&#xe6;" horiz-adv-x="1570" d="M68 608q12 116 51 221t103 190t150 128q193 96 420 -49q109 51 262 20q74 -18 161 -124q151 -186 95 -304q-20 -42 -80 -62q-66 -8 -134 -13t-137 -14q-157 -21 -267 -63q-19 -158 4.5 -237t70.5 -128t139 -61q205 -27 594 166q22 -33 22 -62q0 -62 -51 -95t-123 -69 t-154 -62t-169 -37t-168 3q-180 31 -269 194q-68 -78 -117 -99q-92 -39 -179.5 7t-141.5 134t-74 194t-8 222zM206 633q-46 -217 18 -337q103 -162 241 -56q39 30 75 76q-30 304 49 531q29 83 77 147l-18 -6q-150 105 -282 -25q-114 -112 -160 -330zM730 756l426 28 q38 2 33 33t-36 68t-83 71t-98 39t-82 -2t-68 -32q-70 -55 -92 -205z" />
<glyph unicode="&#xe7;" horiz-adv-x="1176" d="M54 350q-59 373 60 591q99 182 298 233q171 44 314 -16q62 -26 94 -67t16 -89q-58 -14 -109 0t-103 27t-107 14t-117 -41q-92 -66 -147 -159t-74 -191t-2 -191t72 -163t148 -106t212 -21t198 57t143 84t118 69t114 11q26 -74 -16 -139t-124 -115t-189 -83t-212 -47 q-237 -32 -327 38q-89 27 -170 119q-78 89 -90 185zM328 -619q0 49 10 59q398 -22 526 33q58 25 58 62t-36 78t-99 82t-130 77q-131 70 -225 98l-18 220l136 20l10 -140q336 -122 466 -296q60 -80 59 -154t-70 -129q-155 -123 -567 -97q-10 0 -28 4l-36 8t-31 9t-19 11 t-6 55z" />
<glyph unicode="&#xe8;" horiz-adv-x="1036" d="M94 302q-48 344 44 607q72 205 246 263q90 30 216 2q74 -16 161 -124q151 -186 95 -304q-20 -42 -80 -62q-66 -8 -134 -13t-137 -14q-157 -21 -267 -63q-19 -158 4.5 -237t70.5 -128t139 -61q205 -27 594 166q22 -33 22 -62q0 -62 -53 -97t-133 -74t-169 -65t-183 -32 t-178 20q-188 58 -258 278zM276 812l426 28q38 2 33 33t-36 68t-83 71t-98 39t-82 -2t-68 -32q-70 -55 -92 -205zM302 1532q2 24 37 51t79 43l316 -248q-4 -33 -29 -59q-44 -47 -81 -47z" />
<glyph unicode="&#xe9;" horiz-adv-x="1036" d="M94 302q-48 344 44 607q72 205 246 263q90 30 216 2q74 -16 161 -124q151 -186 95 -304q-20 -42 -80 -62q-66 -8 -134 -13t-137 -14q-157 -21 -267 -63q-19 -158 4.5 -237t70.5 -128t139 -61q205 -27 594 166q22 -33 22 -62q0 -62 -53 -97t-133 -74t-169 -65t-183 -32 t-178 20q-188 58 -258 278zM276 812l426 28q38 2 33 33t-36 68t-83 71t-98 39t-82 -2t-68 -32q-70 -55 -92 -205zM302 1352l316 248q44 -16 79 -43t37 -51l-322 -260q-56 0 -97 71q-11 19 -13 35z" />
<glyph unicode="&#xea;" horiz-adv-x="1036" d="M94 302q-48 344 44 607q72 205 246 263q90 30 216 2q74 -16 161 -124q151 -186 95 -304q-20 -42 -80 -62q-66 -8 -134 -13t-137 -14q-157 -21 -267 -63q-19 -158 4.5 -237t70.5 -128t139 -61q205 -27 594 166q22 -33 22 -62q0 -62 -53 -97t-133 -74t-169 -65t-183 -32 t-178 20q-188 58 -258 278zM194 1332l264 400q37 70 109 23q61 -40 87 -103l170 -316q6 -40 -10 -57t-40 -19t-48 8t-32 22l-172 252l-202 -282q8 -4 -8 -12t-40 -5t-47 22t-31 67zM276 812l426 28q38 2 33 33t-36 68t-83 71t-98 39t-82 -2t-68 -32q-70 -55 -92 -205z" />
<glyph unicode="&#xeb;" horiz-adv-x="1036" d="M94 302q-48 344 44 607q72 205 246 263q90 30 216 2q74 -16 161 -124q151 -186 95 -304q-20 -42 -80 -62q-66 -8 -134 -13t-137 -14q-157 -21 -267 -63q-19 -158 4.5 -237t70.5 -128t139 -61q205 -27 594 166q22 -33 22 -62q0 -62 -53 -97t-133 -74t-169 -65t-183 -32 t-178 20q-188 58 -258 278zM223 1340q-11 32 0 59t39 46t61 22q81 7 115 -71q16 -36 6 -67t-36 -50t-60 -21t-74 24t-51 58zM276 812l426 28q38 2 33 33t-36 68t-83 71t-98 39t-82 -2t-68 -32q-70 -55 -92 -205zM531 1344q-11 32 0 59t39 45t61 20q79 5 113 -70 q16 -36 6 -67t-35 -49t-60 -20t-74 24t-50 58z" />
<glyph unicode="&#xec;" horiz-adv-x="342" d="M-42 1532q2 24 37 51t79 43l316 -248q-4 -33 -29 -59q-44 -47 -81 -47zM85 1082q-3 30 20 61t52 44t55 6t30 -43l40 -1032q0 -32 -24 -62t-53 -43t-54 0t-25 65q0 6 -3 76t-7 174t-8 225t-9 230t-8 189t-6 110z" />
<glyph unicode="&#xed;" horiz-adv-x="342" d="M-42 1352l316 248q44 -16 79 -43t37 -51l-322 -260q-56 0 -97 71q-11 19 -13 35zM85 1082q-3 30 20 61t52 44t55 6t30 -43l40 -1032q0 -32 -24 -62t-53 -43t-54 0t-25 65q0 6 -3 76t-7 174t-8 225t-9 230t-8 189t-6 110z" />
<glyph unicode="&#xee;" horiz-adv-x="342" d="M-150 1332l264 400q37 70 109 23q61 -40 87 -103l170 -316q6 -40 -10 -57t-40 -19t-48 8t-32 22l-172 252l-202 -282q8 -4 -8 -12t-40 -5t-47 22t-31 67zM85 1082q-3 30 20 61t52 44t55 6t30 -43l40 -1032q0 -32 -24 -62t-53 -43t-54 0t-25 65q0 6 -3 76t-7 174t-8 225 t-9 230t-8 189t-6 110z" />
<glyph unicode="&#xef;" horiz-adv-x="342" d="M-55 1350q-11 32 0 59t39 46t61 22q81 7 115 -71q16 -36 6 -67t-36 -50t-60 -21t-74 24t-51 58zM85 1082q-3 30 20 61t52 44t55 6t30 -43l40 -1032q0 -32 -24 -62t-53 -43t-54 0t-25 65q0 6 -3 76t-7 174t-8 225t-9 230t-8 189t-6 110zM253 1354q-11 32 0 59t39 45t61 20 q79 5 113 -70q16 -36 6 -67t-35 -49t-60 -20t-74 24t-50 58z" />
<glyph unicode="&#xf1;" d="M58 128q96 372 40 916q38 80 88 37q35 -31 63 -100q45 -115 45 -145q44 38 81 97t76 118t85 105t110 56q242 44 375 -189q102 -179 134 -512q23 -245 1 -467q-22 -46 -59 -46t-59 46q-24 415 -98 703q-60 232 -153 289q-102 63 -248 -161q-75 -115 -167 -331 q-14 -28 -39 -103t-43 -125t-33 -96t-27 -82t-16 -54q-28 -71 -88 -36q-24 14 -44 38t-24 42zM188 1466q37 73 92.5 134.5t97.5 91.5t78 20q63 -32 118.5 -89t82.5 -83t49 -34q91 -18 165 47q59 52 101 155q52 28 74 5t17 -70t-34 -106t-81 -104q-125 -108 -284 -47 q-34 12 -62 40t-54 57q-64 71 -112 77q-21 -9 -66.5 -61.5t-72.5 -78.5t-50 -34q-52 -18 -59 80z" />
<glyph unicode="&#xf2;" horiz-adv-x="1064" d="M37 552q9 102 48 199t104 183t148 147q182 134 387 103q88 -14 151 -83t100 -171t47 -224t-11 -241t-72 -221t-134 -165t-201 -74t-253 46t-202 135t-94 171t-18 195zM210 581q-46 -234 122 -355q130 -84 233 -70t173 88t105 189t30 235t-52 223t-143 155q-54 28 -126 -3 t-141 -100t-125 -165t-76 -197zM436 1542q2 24 37 51t79 43l316 -248q-4 -33 -29 -59q-44 -47 -81 -47z" />
<glyph unicode="&#xf3;" horiz-adv-x="1064" d="M37 552q9 102 48 199t104 183t148 147q182 134 387 103q88 -14 151 -83t100 -171t47 -224t-11 -241t-72 -221t-134 -165t-201 -74t-253 46t-202 135t-94 171t-18 195zM210 581q-46 -234 122 -355q130 -84 233 -70t173 88t105 189t30 235t-52 223t-143 155q-54 28 -126 -3 t-141 -100t-125 -165t-76 -197zM316 1352l316 248q44 -16 79 -43t37 -51l-322 -260q-56 0 -97 71q-11 19 -13 35z" />
<glyph unicode="&#xf4;" horiz-adv-x="1064" d="M37 552q9 102 48 199t104 183t148 147q182 134 387 103q88 -14 151 -83t100 -171t47 -224t-11 -241t-72 -221t-134 -165t-201 -74t-253 46t-202 135t-94 171t-18 195zM208 1332l264 400q37 70 109 23q61 -40 87 -103l170 -316q6 -40 -10 -57t-40 -19t-48 8t-32 22 l-172 252l-202 -282q8 -4 -8 -12t-40 -5t-47 22t-31 67zM210 581q-46 -234 122 -355q130 -84 233 -70t173 88t105 189t30 235t-52 223t-143 155q-54 28 -126 -3t-141 -100t-125 -165t-76 -197z" />
<glyph unicode="&#xf5;" horiz-adv-x="1064" d="M37 552q9 102 48 199t104 183t148 147q182 134 387 103q88 -14 151 -83t100 -171t47 -224t-11 -241t-72 -221t-134 -165t-201 -74t-253 46t-202 135t-94 171t-18 195zM102 1368q37 73 92.5 134.5t97.5 91.5t78 20q63 -32 118.5 -89t82.5 -83t49 -34q91 -18 165 47 q59 52 101 155q52 28 74 5t17 -70t-34 -106t-81 -104q-125 -108 -284 -47q-34 12 -62 40t-54 57q-64 71 -112 77q-21 -9 -66.5 -61.5t-72.5 -78.5t-50 -34q-52 -18 -59 80zM210 581q-46 -234 122 -355q130 -84 233 -70t173 88t105 189t30 235t-52 223t-143 155 q-54 28 -126 -3t-141 -100t-125 -165t-76 -197z" />
<glyph unicode="&#xf6;" horiz-adv-x="1064" d="M37 552q9 102 48 199t104 183t148 147q182 134 387 103q88 -14 151 -83t100 -171t47 -224t-11 -241t-72 -221t-134 -165t-201 -74t-253 46t-202 135t-94 171t-18 195zM210 581q-46 -234 122 -355q130 -84 233 -70t173 88t105 189t30 235t-52 223t-143 155q-54 28 -126 -3 t-141 -100t-125 -165t-76 -197zM313 1284q-11 32 0 59t39 46t61 22q81 7 115 -71q16 -36 6 -67t-36 -50t-60 -21t-74 24t-51 58zM621 1288q-11 32 0 59t39 45t61 20q79 5 113 -70q16 -36 6 -67t-35 -49t-60 -20t-74 24t-50 58z" />
<glyph unicode="&#xf8;" horiz-adv-x="1064" d="M37 552q9 102 48 199t104 183t148 147q182 134 387 103q88 -14 151 -83t100 -171t47 -224t-11 -241t-72 -221t-134 -165t-201 -74t-253 46t-202 135t-94 171t-18 195zM210 581q-46 -234 122 -355q130 -84 233 -70t173 88t105 189t30 235t-52 223t-143 155q-54 28 -126 -3 t-141 -100t-125 -165t-76 -197zM222 3q-17 19 114 276q244 482 495 954q83 8 130 -16q44 -21 19 -55l-597 -1178q-15 -26 -42.5 -33.5t-55.5 2t-63 50.5z" />
<glyph unicode="&#xf9;" horiz-adv-x="1236" d="M68 686q-4 230 30 452q20 40 58 40t58 -40q0 -30 -3 -95t-6 -149t-3 -178t7 -183t21 -164t41 -119q59 -96 163 -6q122 110 211 291q25 51 34 80t21 105t25 165t23 165t14 96q43 66 86 45q40 -20 32 -99q-10 -81 -5 -239q10 -306 41 -425q72 -191 247 -238 q115 -31 147 -52.5t42 -59.5q33 -63 -34 -75q-51 -9 -142 11q-180 40 -286 133q-72 63 -130 163q-266 -303 -436 -294q-129 7 -196 215q-55 172 -60 455zM260 1512q2 24 37 51t79 43l316 -248q-4 -33 -29 -59q-44 -47 -81 -47z" />
<glyph unicode="&#xfa;" horiz-adv-x="1236" d="M68 686q-4 230 30 452q20 40 58 40t58 -40q0 -30 -3 -95t-6 -149t-3 -178t7 -183t21 -164t41 -119q59 -96 163 -6q122 110 211 291q25 51 34 80t21 105t25 165t23 165t14 96q43 66 86 45q40 -20 32 -99q-10 -81 -5 -239q10 -306 41 -425q72 -191 247 -238 q115 -31 147 -52.5t42 -59.5q33 -63 -34 -75q-51 -9 -142 11q-180 40 -286 133q-72 63 -130 163q-266 -303 -436 -294q-129 7 -196 215q-55 172 -60 455zM304 1374l316 248q44 -16 79 -43t37 -51l-322 -260q-56 0 -97 71q-11 19 -13 35z" />
<glyph unicode="&#xfb;" horiz-adv-x="1236" d="M68 686q-4 230 30 452q20 40 58 40t58 -40q0 -30 -3 -95t-6 -149t-3 -178t7 -183t21 -164t41 -119q59 -96 163 -6q122 110 211 291q25 51 34 80t21 105t25 165t23 165t14 96q43 66 86 45q40 -20 32 -99q-10 -81 -5 -239q10 -306 41 -425q72 -191 247 -238 q115 -31 147 -52.5t42 -59.5q33 -63 -34 -75q-51 -9 -142 11q-180 40 -286 133q-72 63 -130 163q-266 -303 -436 -294q-129 7 -196 215q-55 172 -60 455zM228 1398l264 400q37 70 109 23q61 -40 87 -103l170 -316q6 -40 -10 -57t-40 -19t-48 8t-32 22l-172 252l-202 -282 q8 -4 -8 -12t-40 -5t-47 22t-31 67z" />
<glyph unicode="&#xfc;" horiz-adv-x="1236" d="M68 686q-4 230 30 452q20 40 58 40t58 -40q0 -30 -3 -95t-6 -149t-3 -178t7 -183t21 -164t41 -119q59 -96 163 -6q122 110 211 291q25 51 34 80t21 105t25 165t23 165t14 96q43 66 86 45q40 -20 32 -99q-10 -81 -5 -239q10 -306 41 -425q72 -191 247 -238 q115 -31 147 -52.5t42 -59.5q33 -63 -34 -75q-51 -9 -142 11q-180 40 -286 133q-72 63 -130 163q-266 -303 -436 -294q-129 7 -196 215q-55 172 -60 455zM255 1382q-11 32 0 59t39 46t61 22q81 7 115 -71q16 -36 6 -67t-36 -50t-60 -21t-74 24t-51 58zM563 1386q-11 32 0 59 t39 45t61 20q79 5 113 -70q16 -36 6 -67t-35 -49t-60 -20t-74 24t-50 58z" />
<glyph unicode="&#xfd;" horiz-adv-x="1176" d="M40 1058q0 17 21 42q36 42 57 42q31 -25 104.5 -133.5t124.5 -183.5t103 -146t103 -130t95 -93t80 -34t58 46q15 92 82.5 351t77.5 298t41 59t59 11t45 -43t11 -69t-19 -97t-29 -146t-36 -179t-36 -179t-29 -146t-15 -80q6 -42 17 -76t10 -65q-2 -70 -101 -145l-122 -842 q-7 -54 -77 -44q-27 4 -50 17t-29 27q-54 111 -5 319q21 89 51 182t54 183q56 212 20 328q-20 66 -78 138t-132 149t-154 157t-147 161q-155 187 -155 321zM372 1352l316 248q44 -16 79 -43t37 -51l-322 -260q-56 0 -97 71q-11 19 -13 35z" />
<glyph unicode="&#xfe;" horiz-adv-x="972" d="M42 719q2 356 24 1103q6 34 31 45t54 5t53 -25t26 -45q-58 -478 -8 -540q94 124 193 156t187 -3t161 -122t116 -199t51 -236t-33 -232t-137 -186t-260 -100q-94 -12 -157 -19t-125 13v-334q-11 -69 -78 -61q-26 3 -46 15t-20 24q-33 394 -32 741zM216 790 q-49 -218 56 -296q46 -34 112 -34t136 27q157 61 252 195q68 94 19 266q-45 159 -157 254q-120 102 -227 21q-129 -97 -191 -433z" />
<glyph unicode="&#xff;" horiz-adv-x="1176" d="M40 1058q0 17 21 42q36 42 57 42q31 -25 104.5 -133.5t124.5 -183.5t103 -146t103 -130t95 -93t80 -34t58 46q15 92 82.5 351t77.5 298t41 59t59 11t45 -43t11 -69t-19 -97t-29 -146t-36 -179t-36 -179t-29 -146t-15 -80q6 -42 17 -76t10 -65q-2 -70 -101 -145l-122 -842 q-7 -54 -77 -44q-27 4 -50 17t-29 27q-54 111 -5 319q21 89 51 182t54 183q56 212 20 328q-20 66 -78 138t-132 149t-154 157t-147 161q-155 187 -155 321zM369 1284q-11 32 0 59t39 46t61 22q81 7 115 -71q16 -36 6 -67t-36 -50t-60 -21t-74 24t-51 58zM677 1288 q-11 32 0 59t39 45t61 20q79 5 113 -70q16 -36 6 -67t-35 -49t-60 -20t-74 24t-50 58z" />
<glyph unicode="&#x152;" horiz-adv-x="1976" d="M38 849q-4 177 41 351t125 315t186 233t226 104q88 -18 164 -54v-10q76 11 170 22.5t165 20.5t135 16q122 13 166 17t105 11t130 4q179 -8 219 -91q12 -26 -4 -47t-34 -31q-20 2 -70 2h-185.5t-103.5 -2t-91 -7t-143 -15q-191 -25 -271 -56q-25 -13 -31.5 -171.5 t-6.5 -338.5h706v-78l-706 -118q-32 -32 -52 -257q-19 -212 -10 -321q10 -180 431 -161q172 8 338.5 26.5t210.5 16.5q42 -22 42 -59t-42 -59q-24 -4 -73 -10t-110 -14t-130 -16t-130 -16q-201 -26 -266 -25t-128 6q-139 11 -235 43q-120 -24 -245 10t-246 145t-182 274 t-65 340zM206 868q2 -140 41 -267t114 -202t168 -121t185 -44l20 1318q-12 24 -18 42t-15 30q-18 24 -91.5 23t-150.5 -70t-134 -180t-89 -250t-30 -279z" />
<glyph unicode="&#x153;" horiz-adv-x="1800" d="M148 600q10 144 69 271t162 220t245 115q86 16 166 -29t144 -129q138 178 388 124q74 -18 161 -124q151 -186 95 -304q-20 -42 -80 -62q-66 -8 -134 -13t-137 -14q-157 -21 -267 -63q-19 -158 4.5 -237t70.5 -128t139 -61q205 -27 594 166q22 -33 22 -62q0 -62 -48 -94 t-112 -64t-136 -58t-149 -41t-153 -11q-171 9 -268 110q-153 -72 -221.5 -86t-108.5 -10q-166 16 -268 103t-145 212t-33 269zM319 476q11 -102 64 -185t163 -115.5t292 64.5q-6 16 -12 30t-13 53t-10 113t0 152q6 168 53 304q-103 143 -234 168q-60 10 -119 -41t-104 -138 t-68 -195t-12 -210zM998 810l426 28q38 2 33 33t-36 68t-83 71t-98 39t-82 -2t-68 -32q-70 -55 -92 -205z" />
<glyph unicode="&#x178;" horiz-adv-x="1294" d="M42 1622q-20 46 10 86q100 25 336 -257q66 -79 130 -159t125 -154t112 -123t89 -67t60 14q56 83 87 303q13 91 24 185t30 178q44 193 143 258q50 -24 66 -58t6 -84l-414 -1732q-4 -14 -20 -34t-39 -31q-59 -28 -83 31q-14 74 2 144t42 156t52 199t32 273 q-91 91 -164.5 169.5t-139.5 148.5t-125 133q-136 145 -173 189q-12 20 -52 58t-78 83t-58 91zM429 1972q-11 32 0 59t39 46t61 22q81 7 115 -71q16 -36 6 -67t-36 -50t-60 -21t-74 24t-51 58zM737 1976q-11 32 0 59t39 45t61 20q79 5 113 -70q16 -36 6 -67t-35 -49t-60 -20 t-74 24t-50 58z" />
<glyph unicode="&#x2c6;" horiz-adv-x="708" d="M34 1332l264 400q37 70 109 23q61 -40 87 -103l170 -316q6 -40 -10 -57t-40 -19t-48 8t-32 22l-172 252l-202 -282q8 -4 -8 -12t-40 -5t-47 22t-31 67z" />
<glyph unicode="&#x2dc;" horiz-adv-x="938" d="M22 1346q37 73 92.5 134.5t97.5 91.5t78 20q63 -32 118.5 -89t82.5 -83t49 -34q91 -18 165 47q59 52 101 155q52 28 74 5t17 -70t-34 -106t-81 -104q-125 -108 -284 -47q-34 12 -62 40t-54 57q-64 71 -112 77q-21 -9 -66.5 -61.5t-72.5 -78.5t-50 -34q-52 -18 -59 80z " />
<glyph unicode="&#x2000;" horiz-adv-x="1230" />
<glyph unicode="&#x2001;" horiz-adv-x="2461" />
<glyph unicode="&#x2002;" horiz-adv-x="1230" />
<glyph unicode="&#x2003;" horiz-adv-x="2461" />
<glyph unicode="&#x2004;" horiz-adv-x="820" />
<glyph unicode="&#x2005;" horiz-adv-x="615" />
<glyph unicode="&#x2006;" horiz-adv-x="410" />
<glyph unicode="&#x2007;" horiz-adv-x="410" />
<glyph unicode="&#x2008;" horiz-adv-x="307" />
<glyph unicode="&#x2009;" horiz-adv-x="492" />
<glyph unicode="&#x200a;" horiz-adv-x="136" />
<glyph unicode="&#x2010;" horiz-adv-x="1180" d="M113 853q-3 33 17 61t50 49t67 26t143 14t223 18t223 17t164 14q20 -10 43 -36t36 -57q32 -77 -41 -103l-874 -62q-48 26 -51 59z" />
<glyph unicode="&#x2011;" horiz-adv-x="1180" d="M113 853q-3 33 17 61t50 49t67 26t143 14t223 18t223 17t164 14q20 -10 43 -36t36 -57q32 -77 -41 -103l-874 -62q-48 26 -51 59z" />
<glyph unicode="&#x2012;" horiz-adv-x="1180" d="M113 853q-3 33 17 61t50 49t67 26t143 14t223 18t223 17t164 14q20 -10 43 -36t36 -57q32 -77 -41 -103l-874 -62q-48 26 -51 59z" />
<glyph unicode="&#x2013;" horiz-adv-x="1706" d="M113 853q-3 33 17 61t50 49t67 26t143 14t223 18t223 17t164 14q20 -10 43 -36t36 -57q32 -77 -41 -103l-874 -62q-48 26 -51 59z" />
<glyph unicode="&#x2014;" horiz-adv-x="2251" d="M113 853q-6 33 35.5 61t104.5 49t141 26t300 14t467.5 18t468 17t344.5 14q42 -10 90 -36t76 -57q67 -77 -86 -103l-1834 -62q-101 26 -107 59z" />
<glyph unicode="&#x2018;" horiz-adv-x="498" d="M97 1239q-17 155 93 159q20 -161 107 -317q23 -41 41 -77l-24 -68q-20 -40 -54 -22t-68 68t-61 121t-34 136z" />
<glyph unicode="&#x2019;" horiz-adv-x="498" d="M94 1004q18 36 41 77t44 89q49 112 63 228q110 -4 93 -159q-15 -139 -95 -257q-34 -50 -68 -68t-54 22z" />
<glyph unicode="&#x201a;" horiz-adv-x="460" d="M104 -58q18 36 41 77t44 89q49 112 63 228q110 -4 93 -159q-15 -139 -95 -257q-34 -50 -68 -68t-54 22z" />
<glyph unicode="&#x201c;" horiz-adv-x="628" d="M142 1224v362q18 38 44 51t48 8t38 -24t16 -45l-20 -396q-24 -12 -60 0q-66 22 -66 44zM356 1232v362q18 38 44 51t48 8t38 -24t16 -45l-20 -396q-24 -12 -60 0q-66 22 -66 44z" />
<glyph unicode="&#x201d;" horiz-adv-x="628" d="M142 1224v362q18 38 44 51t48 8t38 -24t16 -45l-20 -396q-24 -12 -60 0q-66 22 -66 44zM356 1232v362q18 38 44 51t48 8t38 -24t16 -45l-20 -396q-24 -12 -60 0q-66 22 -66 44z" />
<glyph unicode="&#x201e;" horiz-adv-x="628" d="M126 -34v362q18 38 44 51t48 8t38 -24t16 -45l-20 -396q-24 -12 -60 0q-66 22 -66 44zM340 -26v362q18 38 44 51t48 8t38 -24t16 -45l-20 -396q-24 -12 -60 0q-66 22 -66 44z" />
<glyph unicode="&#x2026;" horiz-adv-x="1500" d="M166 80q-18 56 11 101t75 66t91 11t59 -66t-14 -102t-72 -66t-88 -10t-62 66zM666 80q-18 56 11 101t75 66t91 11t59 -66t-14 -102t-72 -66t-88 -10t-62 66zM1166 80q-18 56 11 101t75 66t91 11t59 -66t-14 -102t-72 -66t-88 -10t-62 66z" />
<glyph unicode="&#x202f;" horiz-adv-x="492" />
<glyph unicode="&#x205f;" horiz-adv-x="615" />
<glyph unicode="&#x20ac;" horiz-adv-x="1700" d="M42 574q-25 60 34 60q155 8 304 14q-3 68 2.5 132t6.5 85t5 45h-26q-18 0 -57 -7t-81 -9q-105 -5 -136 56q-8 16 17 34t71 37q95 39 248 69q81 338 240 549q197 262 462 165q70 -27 126 -154q56 -126 40 -214q-18 -101 -128 -64q7 247 -72 300q-99 66 -289 -156 q-103 -120 -158 -224t-63 -132l-10 -35q-2 -7 -4 -13q351 44 446 -40q34 -30 16 -82q-2 -6 -17 -21t-23 -19q-24 -2 -76 -6l-117 -9q-65 -5 -136 -9t-133 -8q-22 -141 -22 -264q119 3 230.5 8.5t160.5 7.5t85 4t72 -1t57 -18q43 -31 17 -137q-32 -2 -103 -6t-159 -9 q-108 -6 -346 -19q41 -275 240 -327q72 -19 171 -1t172 52t138 77t130 91t147 94q57 32 100 -16q44 -49 17 -100.5t-96 -106.5t-161 -104t-198 -88t-207 -56q-229 -38 -319 41q-122 104 -183 209t-83 229h-6l-136 -2l-138 2q-20 14 -41 43t-31 53z" />
<glyph unicode="&#xe000;" horiz-adv-x="1220" d="M0 0v1220h1220v-1220h-1220z" />
</font>
</defs>
</svg>
